<svg xmlns="http://www.w3.org/2000/svg" xmlns:xlink="http://www.w3.org/1999/xlink" width="18" height="18" viewBox="0 0 18 18">
  <defs>
    <clipPath id="clip-path">
      <rect id="Rectangle_6899" data-name="Rectangle 6899" width="13" height="13" fill="#3e85f0"/>
    </clipPath>
  </defs>
  <g id="Group_15550" data-name="Group 15550" transform="translate(21808 22422)">
    <circle id="Ellipse_704" data-name="Ellipse 704" cx="9" cy="9" r="9" transform="translate(-21808 -22422)" fill="#3e85f0" opacity="0.1"/>
    <g id="Group_15549" data-name="Group 15549" transform="translate(-21805 -22419)">
      <g id="Group_15548" data-name="Group 15548" clip-path="url(#clip-path)">
        <path id="Path_21854" data-name="Path 21854" d="M12.815,5.246H2.532a.328.328,0,0,0-.369.363V7.78h.65V5.9h9.716v5.326H6.889v.65c1.955,0,3.916,0,5.871.005a.4.4,0,0,0,.419-.242V5.488a.364.364,0,0,0-.363-.242" transform="translate(-0.991 -2.404)" fill="#3e85f0"/>
        <path id="Path_21855" data-name="Path 21855" d="M17.153,11.18c-.061.028-.094.049-.094.127a.314.314,0,0,1-.32.353.328.328,0,0,1-.325-.347v-.022c-.2-.093-.38-.165-.55-.264a.32.32,0,1,1,.336-.545.842.842,0,0,0,.534.138.425.425,0,0,0,.424-.342.316.316,0,0,0-.209-.386c-.182-.072-.363-.143-.545-.22a1.271,1.271,0,0,1-.187-.1.784.784,0,0,1-.43-.782A.871.871,0,0,1,16.321,8c.071-.034.1-.061.1-.144a.32.32,0,0,1,.319-.32.316.316,0,0,1,.32.32c.005.066.028.083.083.1a1.989,1.989,0,0,1,.3.154.32.32,0,1,1-.353.534.545.545,0,0,0-.43-.088.268.268,0,0,0-.231.27.148.148,0,0,0,.088.165c.187.088.369.187.562.259a1.013,1.013,0,0,1,.688.655,1.066,1.066,0,0,1-.617,1.272" transform="translate(-7.196 -3.453)" fill="#3e85f0"/>
        <path id="Path_21856" data-name="Path 21856" d="M8.772,9.609a.325.325,0,0,1-.33.314H6.872c-.3,0-.595,0-.9-.005-.209.005-.418,0-.628,0A.471.471,0,0,1,5.225,9.9a.239.239,0,0,1-.082-.028.274.274,0,0,1-.16-.248.11.11,0,0,1-.005-.072.318.318,0,0,1,.237-.264.82.82,0,0,1,.16-.011c1-.005,2-.005,3-.005a.395.395,0,0,1,.4.336" transform="translate(-2.279 -4.25)" fill="#3e85f0"/>
        <path id="Path_21857" data-name="Path 21857" d="M8.184,9.923v.3H6.879c-.3,0-.595,0-.9-.005-.21.005-.419,0-.628,0a.435.435,0,0,1-.12-.017.247.247,0,0,1-.083-.027.275.275,0,0,1-.159-.248Z" transform="translate(-2.287 -4.548)" fill="#3e85f0"/>
        <path id="Path_21858" data-name="Path 21858" d="M5.4,12.275h-.23V11.128H2.418v1.147h-.23a.688.688,0,0,0-.688.688v1.377h.918v.918H5.172v-.918H6.09V12.964a.688.688,0,0,0-.688-.688m-2.525-.688H4.713v.688H2.877ZM4.713,14.8H2.877v-.918H4.713Zm.459-.918v-.459H2.418v.459H1.959v-.918a.229.229,0,0,1,.23-.229H5.4a.229.229,0,0,1,.229.229v.918Z" transform="translate(-0.688 -5.1)" fill="#3e85f0"/>
        <path id="Path_21859" data-name="Path 21859" d="M8.085,14.306a.229.229,0,1,1-.23.23.23.23,0,0,1,.23-.23" transform="translate(-3.6 -6.557)" fill="#3e85f0"/>
      </g>
    </g>
  </g>
</svg>
