<svg xmlns="http://www.w3.org/2000/svg" xmlns:xlink="http://www.w3.org/1999/xlink" width="64" height="64" viewBox="0 0 64 64">
  <defs>
    <clipPath id="clip-path">
      <rect id="Rectangle_6732" data-name="Rectangle 6732" width="48" height="48" fill="none"/>
    </clipPath>
  </defs>
  <g id="Group_15287" data-name="Group 15287" transform="translate(-199 -348)">
    <circle id="Ellipse_703" data-name="Ellipse 703" cx="32" cy="32" r="32" transform="translate(199 348)" fill="#eef5ff"/>
    <g id="Group_15289" data-name="Group 15289" transform="translate(207 356)">
      <g id="Group_15288" data-name="Group 15288" clip-path="url(#clip-path)">
        <path id="Path_21829" data-name="Path 21829" d="M20,10.857A9.143,9.143,0,1,0,29.142,20,9.154,9.154,0,0,0,20,10.857" transform="translate(10.858 10.857)" fill="#3e85f0"/>
        <path id="Path_21830" data-name="Path 21830" d="M18.858,25.714a6.857,6.857,0,1,1,6.858-6.858,6.864,6.864,0,0,1-6.858,6.858" transform="translate(12 12)" fill="#d2e4ff"/>
        <path id="Path_21831" data-name="Path 21831" d="M34.858,4H5.144A1.147,1.147,0,0,0,4,5.142V34.858A1.147,1.147,0,0,0,5.144,36H17.716V33.714H6.286V15.428h27.43v2.286H36V5.142A1.145,1.145,0,0,0,34.858,4" transform="translate(4 4)" fill="#3e85f0"/>
        <rect id="Rectangle_6725" data-name="Rectangle 6725" width="27.428" height="6.858" transform="translate(10.286 10.284)" fill="#d2e4ff"/>
        <rect id="Rectangle_6726" data-name="Rectangle 6726" width="2.286" height="2.286" transform="translate(12.568 12.568)" fill="#3e85f0"/>
        <rect id="Rectangle_6727" data-name="Rectangle 6727" width="6.858" height="2.286" transform="translate(17.138 12.568)" fill="#3e85f0"/>
        <rect id="Rectangle_6728" data-name="Rectangle 6728" width="2.286" height="2.286" transform="translate(12.568 12.568)" fill="#3e85f0"/>
        <rect id="Rectangle_6729" data-name="Rectangle 6729" width="6.858" height="2.286" transform="translate(17.138 12.568)" fill="#3e85f0"/>
        <rect id="Rectangle_6730" data-name="Rectangle 6730" width="2.286" height="2.286" transform="translate(12.568 12.568)" fill="#3e85f0"/>
        <rect id="Rectangle_6731" data-name="Rectangle 6731" width="6.858" height="2.286" transform="translate(17.138 12.568)" fill="#3e85f0"/>
        <path id="Path_21832" data-name="Path 21832" d="M14.307,12.93h6.434v.012c-.376.582-.594.89-.64.936H18.375a2.317,2.317,0,0,1,.492,1.006h1.828c.024.012.034.012.034.034-.41.618-.616.914-.628.914H18.913a2.906,2.906,0,0,1-.458,1.156,2.783,2.783,0,0,1-1.05.868,4.068,4.068,0,0,1-1.8.456v.012q0,.069,3.876,4.594h-1.7C15.255,19.992,14,18.518,14,18.508v-.892l.01-.034a5.494,5.494,0,0,0,.79.046c1.406,0,2.286-.458,2.628-1.372a1.059,1.059,0,0,0,.08-.424H13.679c-.012,0-.024,0-.024-.022.424-.618.64-.926.652-.926h3.04v-.012a1.8,1.8,0,0,0-1.018-.822,3.168,3.168,0,0,0-.96-.172h-1.7v-.034a9.33,9.33,0,0,1,.64-.914" transform="translate(13.655 12.93)" fill="#3e85f0"/>
      </g>
    </g>
  </g>
</svg>
