<svg id="Data_Port" data-name="Data Port" xmlns="http://www.w3.org/2000/svg" xmlns:xlink="http://www.w3.org/1999/xlink" width="24" height="24" viewBox="0 0 24 24">
  <defs>
    <clipPath id="clip-path">
      <rect id="Rectangle_6889" data-name="Rectangle 6889" width="24" height="24" fill="#3E85F0"/>
    </clipPath>
  </defs>
  <g id="Group_15591" data-name="Group 15591" clip-path="url(#clip-path)">
    <path id="Path_21990" data-name="Path 21990" d="M16.991,6.07H13.783A.74.74,0,0,0,13,6.852V9.513a.739.739,0,0,0,.783.782h.86v.548h-2.66v-6.1l.391.391a.711.711,0,0,0,.548.235.61.61,0,0,0,.548-.235.756.756,0,0,0,0-1.1l-1.8-1.8a.757.757,0,0,0-1.1,0l-1.8,1.8a.775.775,0,0,0,1.1,1.1l.547-.547v9h-2.5v-.771a2.348,2.348,0,1,0-1.565,0v1.553a.842.842,0,0,0,.782.783h3.287v1.569a1.509,1.509,0,0,0-.469.31A1.723,1.723,0,0,0,11.2,20a1.916,1.916,0,0,0,1.252-.47,1.9,1.9,0,0,0,0-2.5,1.786,1.786,0,0,0-.469-.292V12.408h3.443a.784.784,0,0,0,.782-.782V10.3h.783a.722.722,0,0,0,.782-.7V6.852a.739.739,0,0,0-.782-.782M7.13,9.748a.784.784,0,0,1,.783.782.842.842,0,0,1-.783.783.783.783,0,0,1,0-1.565M16.287,8.73H14.643V7.557h1.643Z" transform="translate(1.216 1)" fill="#3E85F0"/>
  </g>
</svg>
