<svg id="Group_15015" data-name="Group 15015" xmlns="http://www.w3.org/2000/svg" xmlns:xlink="http://www.w3.org/1999/xlink" width="18" height="18" viewBox="0 0 18 18">
  <defs>
    <clipPath id="clip-path">
      <rect id="Rectangle_6647" data-name="Rectangle 6647" width="18" height="18" fill="#3E85F0"/>
    </clipPath>
  </defs>
  <g id="Group_15014" data-name="Group 15014" clip-path="url(#clip-path)">
    <path id="Path_21386" data-name="Path 21386" d="M14.7,2H10.983A2.308,2.308,0,0,0,8.667,4.3V8.65H5.333L9.5,12.817,13.666,8.65H10.333V4.3a.644.644,0,0,1,.633-.634h3.717a.644.644,0,0,1,.633.634V14.683a.644.644,0,0,1-.633.634H4.3a.644.644,0,0,1-.633-.634V3.667H2V14.7A2.3,2.3,0,0,0,4.3,17H14.683A2.308,2.308,0,0,0,17,14.7V4.3A2.3,2.3,0,0,0,14.7,2" transform="translate(-0.5 -0.5)" fill="#3E85F0"/>
  </g>
</svg>
