<svg id="Due_Student_Fee_Voucher_" data-name="Due Student Fee Voucher " xmlns="http://www.w3.org/2000/svg" xmlns:xlink="http://www.w3.org/1999/xlink" width="24" height="24" viewBox="0 0 24 24">
  <defs>
    <clipPath id="clip-path">
      <rect id="Rectangle_6887" data-name="Rectangle 6887" width="24" height="24" fill="#3E85F0"/>
    </clipPath>
  </defs>
  <g id="Group_15577" data-name="Group 15577" clip-path="url(#clip-path)">
    <path id="Path_21979" data-name="Path 21979" d="M18.447,4.8H15.83a2.151,2.151,0,0,0-1.19.36l-1.178.8-.9-.7A2.111,2.111,0,0,0,11.258,4.8H3.179A2.178,2.178,0,0,0,1,6.982V17.017A2.178,2.178,0,0,0,3.179,19.2h8.066a2.193,2.193,0,0,0,1.308-.458l.89-.7.281.19v-1.6a1.432,1.432,0,0,0-.334-.052,1.232,1.232,0,0,0-.739.255l-.909.726a.891.891,0,0,1-.5.163H3.395a.865.865,0,0,1-.851-.85V7.126a.865.865,0,0,1,.851-.85h7.836a.835.835,0,0,1,.5.177l.9.706a1.179,1.179,0,0,0,1.4.059l1.223-.8a.806.806,0,0,1,.438-.137h2.545a.853.853,0,0,1,.831.85V9.959h1.55V6.982A2.177,2.177,0,0,0,18.447,4.8" fill="#3E85F0"/>
    <path id="Path_21980" data-name="Path 21980" d="M18.691,10.577a2.155,2.155,0,1,0,2.154,2.155,2.162,2.162,0,0,0-2.154-2.155m0,2.873a.719.719,0,1,1,.717-.718.716.716,0,0,1-.717.718" fill="#3E85F0"/>
    <path id="Path_21981" data-name="Path 21981" d="M18.69,15.525c-1.458,0-4.309.776-4.309,2.572v1.1H23V18.1c0-1.8-2.852-2.572-4.31-2.572m-2.65,2.234a4.771,4.771,0,0,1,5.3,0Z" fill="#3E85F0"/>
    <path id="Path_21982" data-name="Path 21982" d="M5.657,11.6a1.4,1.4,0,0,0,0-2.8,1.36,1.36,0,0,0-1.318,1.4h0a1.36,1.36,0,0,0,1.318,1.4m0-1.747a.35.35,0,1,1-.33.35.341.341,0,0,1,.33-.35" fill="#3E85F0"/>
    <path id="Path_21983" data-name="Path 21983" d="M7.634,13.693a1.32,1.32,0,1,0,1.318-1.4h0a1.359,1.359,0,0,0-1.317,1.4m1.647,0a.33.33,0,1,1-.33-.349.34.34,0,0,1,.33.349" fill="#3E85F0"/>
    <path id="Path_21984" data-name="Path 21984" d="M5.383,15a.476.476,0,0,0,.685-.144h0L9.363,9.615a.542.542,0,0,0-.137-.726.475.475,0,0,0-.685.144l-3.3,5.243A.543.543,0,0,0,5.383,15" fill="#3E85F0"/>
    <path id="Path_21985" data-name="Path 21985" d="M13.236,8.764a.693.693,0,0,1,.672.713v1.14a.673.673,0,1,1-1.344,0V9.477a.693.693,0,0,1,.672-.713" fill="#3E85F0"/>
    <path id="Path_21986" data-name="Path 21986" d="M13.236,12.671a.693.693,0,0,1,.672.713v1.14a.673.673,0,1,1-1.344,0v-1.14a.693.693,0,0,1,.672-.713" fill="#3E85F0"/>
  </g>
</svg>
