<svg version="1.2" baseProfile="tiny-ps" xmlns="http://www.w3.org/2000/svg" viewBox="0 0 24 24" width="18" height="18">
	<title>editIcon - Copy-svg</title>
	<style>
		tspan { white-space:pre }
		.shp0 { fill: #ebf3ff } 
		.shp1 { fill: none } 
		.shp2 { fill: #3e85f0 } 
	</style>
	<path id="Ellipse_702" class="shp0" d="M12 24C5.36 24 0 18.64 0 12C0 5.36 5.36 0 12 0C18.64 0 24 5.36 24 12C24 18.64 18.64 24 12 24Z" />
	<g id="outline-create-24px">
		<g id="Bounding_Boxes">
			<path id="Path_2781" class="shp1" d="M2.48 3L20.48 3L20.48 21L2.48 21L2.48 3Z" />
		</g>
		<g id="Outline">
			<g id="Group_197">
				<path id="Path_2782" fill-rule="evenodd" class="shp2" d="M13.03 7.63L15.85 10.45L7.55 18.75L4.73 18.75L4.73 15.93L13.03 7.63ZM13.73 10.44L13.03 9.75L6.23 16.55L6.23 17.25L6.93 17.25L13.73 10.44Z" />
				<path id="Path_2783" class="shp2" d="M18.01 7.23C18.08 7.3 18.13 7.38 18.17 7.47C18.21 7.56 18.23 7.66 18.23 7.76C18.23 7.86 18.21 7.95 18.17 8.04C18.13 8.13 18.08 8.22 18.01 8.29L16.64 9.66L13.82 6.84L15.19 5.47C15.26 5.4 15.35 5.35 15.44 5.31C15.53 5.27 15.63 5.25 15.72 5.25C15.82 5.25 15.92 5.27 16.01 5.31C16.1 5.35 16.18 5.4 16.25 5.47L18.01 7.23L18.01 7.23Z" />
			</g>
		</g>
	</g>
</svg>