<svg xmlns="http://www.w3.org/2000/svg" xmlns:xlink="http://www.w3.org/1999/xlink" width="64" height="64" viewBox="0 0 64 64">
  <defs>
    <clipPath id="clip-path">
      <rect id="Rectangle_6756" data-name="Rectangle 6756" width="48" height="48" fill="none"/>
    </clipPath>
  </defs>
  <g id="Group_15297" data-name="Group 15297" transform="translate(-538 -503)">
    <circle id="Ellipse_703" data-name="Ellipse 703" cx="32" cy="32" r="32" transform="translate(538 503)" fill="#fff5e9"/>
    <g id="Group_15317" data-name="Group 15317" transform="translate(546 511)">
      <g id="Group_15317-2" data-name="Group 15317" clip-path="url(#clip-path)">
        <path id="Path_21892" data-name="Path 21892" d="M14.559,23.627a.93.93,0,0,0-.93.93v1.86a.93.93,0,1,1-1.86,0V6.883H28.513V23.627Z" transform="translate(11.769 6.883)" fill="#ffddb4"/>
        <path id="Path_21893" data-name="Path 21893" d="M16.152,9.016a.931.931,0,0,0-1.316-.006l0,.006-1.862,1.86a.931.931,0,0,0,0,1.316l0,.006,1.862,1.86a.934.934,0,0,0,1.32-1.322l-1.21-1.2,1.21-1.2a.929.929,0,0,0,.006-1.314l-.006-.006" transform="translate(12.696 8.74)" fill="#ff9b25"/>
        <path id="Path_21894" data-name="Path 21894" d="M18.942,9.015a.933.933,0,1,0-1.32,1.32l1.208,1.2-1.208,1.2a.934.934,0,0,0,1.32,1.322L20.8,12.2a.929.929,0,0,0,.006-1.316l-.006-.006Z" transform="translate(17.348 8.741)" fill="#ff9b25"/>
        <path id="Path_21895" data-name="Path 21895" d="M16.9,16.421l1.86-7.442a.956.956,0,1,0-1.86-.446l-1.86,7.442a.93.93,0,1,0,1.786.516.45.45,0,0,0,.018-.07Z" transform="translate(15.005 7.799)" fill="#ff9b25"/>
        <path id="Path_21896" data-name="Path 21896" d="M15.489,13.394h-1.86a.93.93,0,0,0,0,1.86h1.86a.93.93,0,0,0,0-1.86" transform="translate(12.699 13.394)" fill="#ff9b25"/>
        <path id="Path_21897" data-name="Path 21897" d="M22,13.394H16.419a.93.93,0,0,0,0,1.86H22a.93.93,0,0,0,0-1.86" transform="translate(15.489 13.394)" fill="#ff9b25"/>
        <path id="Path_21898" data-name="Path 21898" d="M41.07,26.882h-.93V9.205a.933.933,0,0,0-.93-.93h-18.6a.935.935,0,0,0-.932.93V19.44h-2.79V9.205a.933.933,0,0,0-.93-.93h-2.79V6.415a.929.929,0,0,0-.586-.864L7.926,3.69a.971.971,0,0,0-.688,0L2.586,5.552A.929.929,0,0,0,2,6.415V12a.931.931,0,0,0,.586.864l4.652,1.862a.892.892,0,0,0,.688,0l4.652-1.862A.931.931,0,0,0,13.164,12v-1.86h1.86V30.6h-1.86v-1.86a.933.933,0,0,0-.586-.866l-4.652-1.86a.971.971,0,0,0-.688,0l-4.652,1.86A.933.933,0,0,0,2,28.742v5.582a.933.933,0,0,0,.586.864l4.652,1.86a.874.874,0,0,0,.688,0l4.652-1.86a.933.933,0,0,0,.586-.864V32.462h2.79a.932.932,0,0,0,.93-.93V21.3h2.79v8.372a2.788,2.788,0,0,0,2.792,2.79H39.21A2.786,2.786,0,0,0,42,29.672v-1.86a.932.932,0,0,0-.93-.93M6.652,12.481,3.86,11.363V7.792L6.652,8.91Zm.93-5.21L5.434,6.415l2.148-.856,2.148.856Zm3.72,4.092-2.79,1.118V8.91L11.3,7.792ZM6.652,34.806,3.86,33.69V30.118l2.792,1.116Zm.93-5.208-2.148-.856,2.148-.856,2.148.856ZM11.3,33.69l-2.79,1.116V31.234l2.79-1.116ZM23.4,27.812v1.86a.93.93,0,0,1-1.86,0V10.137H38.28V26.882H24.326a.932.932,0,0,0-.93.93m16.744,1.86a.932.932,0,0,1-.93.93H25.088a2.646,2.646,0,0,0,.168-.93v-.93H40.14Z" transform="translate(2 3.626)" fill="#ff9b25"/>
      </g>
    </g>
  </g>
</svg>
