<svg xmlns="http://www.w3.org/2000/svg" xmlns:xlink="http://www.w3.org/1999/xlink" width="64" height="64" viewBox="0 0 64 64">
  <defs>
    <clipPath id="clip-path">
      <rect id="Rectangle_7017" data-name="Rectangle 7017" width="48" height="48" fill="none"/>
    </clipPath>
  </defs>
  <g id="Group_15847" data-name="Group 15847" transform="translate(-1221 -277)">
    <circle id="Ellipse_703" data-name="Ellipse 703" cx="32" cy="32" r="32" transform="translate(1221 277)" fill="#eef5ff"/>
    <g id="Group_15849" data-name="Group 15849" transform="translate(1229 285)">
      <g id="Group_15848" data-name="Group 15848" clip-path="url(#clip-path)">
        <path id="Path_22035" data-name="Path 22035" d="M6.857,9.428V4.286A1.289,1.289,0,0,1,8.143,3H18.429a1.29,1.29,0,0,1,1.286,1.286V9.428a1.29,1.29,0,0,1-1.286,1.286H8.143A1.289,1.289,0,0,1,6.857,9.428" transform="translate(6.857 3)" fill="#d2e4ff"/>
        <path id="Path_22036" data-name="Path 22036" d="M30,13.286V28.714a3.853,3.853,0,0,1-3.858,3.858H15.858A3.853,3.853,0,0,1,12,28.714V13.286a3.853,3.853,0,0,1,3.858-3.858H26.142A3.853,3.853,0,0,1,30,13.286" transform="translate(12 9.428)" fill="#d2e4ff"/>
        <path id="Path_22037" data-name="Path 22037" d="M8.142,31.286H18.428V28.714H8.142Zm0-6.428H18.428V22.286H8.142Zm0-6.43H18.428V15.856H8.142Zm23.144,15.43h2.572V31.286H31.286Zm-5.144,0h2.572V31.286H26.142Zm5.144-5.144h2.572V26.142H31.286Zm-5.144,0h2.572V26.142H26.142Zm0-5.142h7.714V21H26.142Zm5.144,10.286h2.572V31.286H31.286Zm0-5.144h2.572V26.142H31.286Zm-5.144-5.142h7.714V21H26.142Zm0,10.286h2.572V31.286H26.142Zm0-5.144h2.572V26.142H26.142Zm9-12.856H24.858A3.851,3.851,0,0,0,21,19.714V35.142A3.851,3.851,0,0,0,24.858,39H35.142A3.851,3.851,0,0,0,39,35.142V19.714a3.851,3.851,0,0,0-3.858-3.856m1.286,19.284a1.289,1.289,0,0,1-1.286,1.286H24.858a1.289,1.289,0,0,1-1.286-1.286V19.714a1.29,1.29,0,0,1,1.286-1.286H35.142a1.29,1.29,0,0,1,1.286,1.286Zm-5.142-1.284h2.572V31.286H31.286Zm0-5.144h2.572V26.142H31.286Zm-5.144-5.142h7.714V21H26.142Zm0,10.286h2.572V31.286H26.142Zm0-5.144h2.572V26.142H26.142ZM27.428,5.572h-2.57v2.57h2.57a1.29,1.29,0,0,1,1.286,1.286v3.7h2.572v-3.7a3.852,3.852,0,0,0-3.858-3.856M6.858,36.428a1.289,1.289,0,0,1-1.286-1.286V9.428A1.29,1.29,0,0,1,6.858,8.142h2.57V5.572H6.858A3.851,3.851,0,0,0,3,9.428V35.142A3.851,3.851,0,0,0,6.858,39H18.532V36.428ZM22.286,3H12a1.289,1.289,0,0,0-1.286,1.286V9.428A1.289,1.289,0,0,0,12,10.714H22.286a1.29,1.29,0,0,0,1.286-1.286V4.286A1.29,1.29,0,0,0,22.286,3M21,8.142H13.286V5.57H21Z" transform="translate(3 3)" fill="#3e85f0"/>
      </g>
    </g>
  </g>
</svg>
