<svg id="Ledger_Balance_Transfer" data-name="Ledger Balance Transfer" xmlns="http://www.w3.org/2000/svg" xmlns:xlink="http://www.w3.org/1999/xlink" width="24" height="24" viewBox="0 0 24 24">
  <defs>
    <clipPath id="clip-path">
      <rect id="Rectangle_6879" data-name="Rectangle 6879" width="24" height="24" fill="#3E85F0"/>
    </clipPath>
  </defs>
  <g id="Group_15560" data-name="Group 15560" clip-path="url(#clip-path)">
    <path id="Path_21949" data-name="Path 21949" d="M18.144,16.319l-1.675,2.057.879-.017c0,.674,0,1.314,0,1.942l1.6,0c0-.628,0-1.268-.006-1.947l.861.009-1.663-2.042" fill="#3E85F0"/>
    <path id="Path_21950" data-name="Path 21950" d="M15.8,19.02H14.2c0,.627,0,1.267,0,1.942l-.879-.018L14.995,23c.56-.686,1.109-1.36,1.663-2.041l-.861.009c0-.68,0-1.32.006-1.948" fill="#3E85F0"/>
    <path id="Path_21951" data-name="Path 21951" d="M21.248,4.128a2.509,2.509,0,0,0-1.812-.773H9.772A4.108,4.108,0,0,0,6.127,1,3.947,3.947,0,0,0,3.215,2.227,4.312,4.312,0,0,0,3.2,8.215,4.091,4.091,0,0,0,4.27,8.99V21.67h7.854V19.894H5.995V9.446c.038,0,.074.012.113.012h0A4.022,4.022,0,0,0,9.016,8.213a4.268,4.268,0,0,0,1.2-3c0-.029-.008-.056-.008-.085h6.815A2.681,2.681,0,0,0,16.873,6v9.792H18.6V6a.852.852,0,0,1,.838-.864.824.824,0,0,1,.594.254.866.866,0,0,1,.245.61v2.66H18.981v1.777H22V6a2.659,2.659,0,0,0-.752-1.868M7.8,6.958a2.332,2.332,0,0,1-1.686.723h0a2.333,2.333,0,0,1-1.685-.722,2.5,2.5,0,0,1,.008-3.471A2.323,2.323,0,0,1,6.1,2.776h.015A2.428,2.428,0,0,1,8.493,5.219a2.481,2.481,0,0,1-.7,1.739" fill="#3E85F0"/>
    <path id="Path_21952" data-name="Path 21952" d="M9.534,13.16a5.2,5.2,0,0,1-.719-.044l-.012.031v.842q0,.019,3.465,4.176h1.567q-3.558-4.284-3.558-4.347v-.013a3.721,3.721,0,0,0,1.647-.424,2.57,2.57,0,0,0,.964-.828,2.625,2.625,0,0,0,.418-1.082H14.4q.012,0,.577-.874c0-.012-.01-.021-.03-.025H13.263a2.152,2.152,0,0,0-.442-.955H14.4a9.77,9.77,0,0,0,.59-.886V8.718H9.079q-.018,0-.583.867v.032h1.56a2.813,2.813,0,0,1,.885.164,1.651,1.651,0,0,1,.928.778v.013H9.079q-.012,0-.6.873a.023.023,0,0,0,.025.026h3.514a1.057,1.057,0,0,1-.074.392q-.472,1.3-2.414,1.3" fill="#3E85F0"/>
    <path id="Path_21953" data-name="Path 21953" d="M6.978,3.918,5.654,5.282l-.415-.426a.564.564,0,0,0-.813,0,.607.607,0,0,0,0,.838l.821.844a.565.565,0,0,0,.814,0v0L7.791,4.755a.6.6,0,0,0,0-.837.564.564,0,0,0-.813,0" fill="#3E85F0"/>
  </g>
</svg>
