<svg xmlns="http://www.w3.org/2000/svg" xmlns:xlink="http://www.w3.org/1999/xlink" width="64" height="64" viewBox="0 0 64 64">
  <defs>
    <clipPath id="clip-path">
      <rect id="Rectangle_7016" data-name="Rectangle 7016" width="48" height="48" fill="none"/>
    </clipPath>
  </defs>
  <g id="Group_15844" data-name="Group 15844" transform="translate(-880 -277)">
    <circle id="Ellipse_703" data-name="Ellipse 703" cx="32" cy="32" r="32" transform="translate(880 277)" fill="#fff5e9"/>
    <g id="Group_15843" data-name="Group 15843" transform="translate(888 285)">
      <rect id="Rectangle_7005" data-name="Rectangle 7005" width="5.356" height="5.376" transform="translate(16.57 13.86)" fill="#ffddb4"/>
      <rect id="Rectangle_7006" data-name="Rectangle 7006" width="5.36" height="1.288" transform="translate(16.572 20.656)" fill="#ffddb4"/>
      <rect id="Rectangle_7007" data-name="Rectangle 7007" width="5.366" height="1.294" transform="translate(16.57 28.778)" fill="#ffddb4"/>
      <rect id="Rectangle_7008" data-name="Rectangle 7008" width="5.378" height="1.286" transform="translate(16.562 26.066)" fill="#ffddb4"/>
      <rect id="Rectangle_7009" data-name="Rectangle 7009" width="5.368" height="1.268" transform="translate(16.576 23.366)" fill="#ffddb4"/>
      <g id="Group_15842" data-name="Group 15842">
        <g id="Group_15841" data-name="Group 15841" clip-path="url(#clip-path)">
          <path id="Path_22027" data-name="Path 22027" d="M24.56,13.673h4V12.361h-4Zm0,14.882H29.93V24.571H24.556Zm0-5.424h5.376v-5.35H24.556Zm.018-6.746h5.362V15.069H24.574Zm0,0h5.362V15.069H24.574Zm-.018,6.746h5.376v-5.35H24.556Zm0,5.424H29.93V24.571H24.556Zm4-16.194h-4v1.312h4ZM31.3,34h4.082V16.385A7.456,7.456,0,1,0,36.556,1.519a7.187,7.187,0,0,0-5.34,1.78,7.413,7.413,0,0,0-2.6,6.326c-.984,0-1.938.03-2.892-.008a3.708,3.708,0,0,0-3.17,1.306c-.014.014-.052.01-.1.02a3.7,3.7,0,0,0-3.184-1.328c-2.16.034-4.32.01-6.48.01h-.462V13.7H9.658V34.011H13.7c0,.368,0,.678,0,.988a2.036,2.036,0,0,0,1.334,1.974,1.007,1.007,0,0,1,.568,1.408,2.377,2.377,0,0,0-.162.67,2.606,2.606,0,0,0,3.448,2.508.976.976,0,0,1,1.236.412A2.453,2.453,0,0,0,21.762,43.5H23.24a2.444,2.444,0,0,0,1.636-1.528.963.963,0,0,1,1.236-.41,2.172,2.172,0,0,0,2.566-.576,2.252,2.252,0,0,0,.7-2.686.964.964,0,0,1,.516-1.29,2.1,2.1,0,0,0,1.41-2.174c-.006-.266,0-.532,0-.836m-8.128-4.5q0-8.124,0-16.24a2.053,2.053,0,0,1,2.254-2.272c1.038,0,2.076.008,3.114-.006a.4.4,0,0,1,.458.336,7.461,7.461,0,0,0,2.052,3.16.78.78,0,0,1,.24.516q.021,7.3.008,14.6c0,.106-.014.212-.022.342h-8.1ZM13.722,11c2.114,0,4.176-.024,6.238.012a1.976,1.976,0,0,1,1.868,2.058c.012.754,0,1.5,0,2.256v14.6H13.722Zm28.6,24.71c-1.738-.86-3.468-1.732-5.2-2.6-.114-.056-.232-.1-.41-.172v2.448H32.7v1.306h5.386V35.129c.122.052.2.078.266.112,1.136.568,2.274,1.13,3.4,1.714.158.082.364.29.354.428a.7.7,0,0,1-.36.464c-1.028.54-2.072,1.048-3.11,1.568l-.556.278V38.107H31.326v1.336h5.39v2.428c.18-.08.29-.124.4-.176,1.734-.868,3.462-1.742,5.2-2.6a1.809,1.809,0,0,0,0-3.39M24.574,16.385h5.362V15.069H24.574Zm-.018,6.746h5.376v-5.35H24.556Zm0,5.424H29.93V24.571H24.556Zm4-16.194h-4v1.312h4ZM6.892,39.677c-1.286-.642-2.522-1.25-3.748-1.876a.416.416,0,0,1-.006-.79c.334-.19.68-.348,1.022-.52.9-.448,1.8-.9,2.76-1.376v1.572h5.39V35.371H8.264V32.939c-.206.1-.34.158-.474.224-1.624.814-3.238,1.646-4.874,2.428A2.455,2.455,0,0,0,1.5,37.019v.738A2.374,2.374,0,0,0,2.892,39.2c1.662.8,3.3,1.642,4.95,2.464.126.064.256.118.448.2v-2.44h5.378V38.115H6.892Z" transform="translate(1.5 1.501)" fill="#ffddb4"/>
          <path id="Path_22028" data-name="Path 22028" d="M32.478,1.519A7.2,7.2,0,0,0,27.136,3.3a7.416,7.416,0,0,0-2.6,6.326c-.982,0-1.94.032-2.892-.006a3.7,3.7,0,0,0-3.17,1.306c-.014.014-.05.01-.1.02a3.7,3.7,0,0,0-3.184-1.328c-2.16.034-4.32.008-6.48.008H8.246V13.7H5.58V34.011H9.622c0,.366-.006.678,0,.988a2.039,2.039,0,0,0,1.334,1.974,1.006,1.006,0,0,1,.568,1.408,2.361,2.361,0,0,0-.162.67,2.6,2.6,0,0,0,3.448,2.506.977.977,0,0,1,1.236.414A2.439,2.439,0,0,0,17.684,43.5H19.16A2.451,2.451,0,0,0,20.8,41.971a.958.958,0,0,1,1.232-.41,2.178,2.178,0,0,0,2.568-.574,2.252,2.252,0,0,0,.7-2.688.964.964,0,0,1,.52-1.29,2.1,2.1,0,0,0,1.41-2.176c-.008-.264,0-.53,0-.836H31.3V16.385A7.457,7.457,0,1,0,32.478,1.519M19.092,29.5V13.261a2.053,2.053,0,0,1,2.254-2.272c1.038,0,2.078.008,3.116-.006a.4.4,0,0,1,.46.334,7.418,7.418,0,0,0,2.052,3.162.787.787,0,0,1,.238.514q.018,7.3.01,14.6c0,.106-.016.212-.024.34H19.092ZM9.644,11c2.112,0,4.174-.026,6.236.01a1.975,1.975,0,0,1,1.868,2.058c.012.752,0,1.5,0,2.254V29.931H9.644ZM25.85,35.1a1,1,0,0,1-.474.6,2.343,2.343,0,0,0-1.31,3.174.771.771,0,0,1-.158.87c-.114.118-.236.228-.346.35a.838.838,0,0,1-1.036.21,2.3,2.3,0,0,0-3.048,1.282.8.8,0,0,1-.816.554c-.164,0-.326,0-.492,0a.725.725,0,0,1-.788-.526,2.385,2.385,0,0,0-3.114-1.3.742.742,0,0,1-.934-.166c-.126-.128-.252-.252-.376-.378a.705.705,0,0,1-.172-.9,2.384,2.384,0,0,0-1.3-3.148.719.719,0,0,1-.524-.748c-.006-.3,0-.6,0-.932h2.742a4.744,4.744,0,0,0,1.7,4.3,4.672,4.672,0,0,0,3.306,1.082,4.788,4.788,0,0,0,4.43-5.382H25.87a4.66,4.66,0,0,1-.02,1.06m-8.76,1.122a1.7,1.7,0,0,0,1.31.48,2.6,2.6,0,0,0,1.176-.376,2.431,2.431,0,0,0,.758-1.026,5.336,5.336,0,0,0,.18-1.288,9.845,9.845,0,0,1,1,.014.4.4,0,0,1,.258.272,3.377,3.377,0,1,1-6.72.652C15,34.007,15,34,15.944,34.011c.134,0,.266.012.436.018a2.48,2.48,0,0,0,.71,2.192M29.932,16.655V32.649H19.092c0,.66.01,1.27-.006,1.88,0,.182-.016.442-.128.532a1.155,1.155,0,0,1-.708.262.558.558,0,0,1-.494-.608c-.008-.668,0-1.334,0-2.036H6.948V15.065h1.3V31.273H28.572V15.615c.434.164.828.3,1.212.462a.319.319,0,0,1,.14.21,1.883,1.883,0,0,1,.008.368m2.074-1.614a6.09,6.09,0,1,1,6.056-6.1,6.083,6.083,0,0,1-6.056,6.1" transform="translate(5.58 1.501)" fill="#ff9b25"/>
          <path id="Path_22029" data-name="Path 22029" d="M13.668,22.394v1.318H8.29v2.442c-.192-.088-.322-.142-.448-.206-1.648-.822-3.288-1.664-4.948-2.462A2.385,2.385,0,0,1,1.5,22.036V21.3A2.455,2.455,0,0,1,2.916,19.87c1.636-.782,3.25-1.614,4.874-2.426.134-.068.268-.128.476-.224v2.43H12.31v1.318H6.92V19.4c-.96.478-1.86.926-2.76,1.376-.342.17-.688.33-1.022.518a.415.415,0,0,0,.008.79c1.224.626,2.46,1.234,3.746,1.876V22.394Z" transform="translate(1.5 17.22)" fill="#ff9b25"/>
          <path id="Path_22030" data-name="Path 22030" d="M28.582,21.664A1.814,1.814,0,0,1,27.4,23.378c-1.74.856-3.47,1.73-5.2,2.6-.106.052-.218.1-.4.174V23.724h-5.39V22.388h6.754v1.586c.226-.114.39-.2.556-.28,1.038-.52,2.082-1.028,3.11-1.566a.719.719,0,0,0,.36-.466c.008-.136-.2-.344-.356-.428-1.126-.584-2.266-1.144-3.4-1.712-.07-.034-.144-.06-.266-.112v1.564H17.786v-1.3H21.8V17.22c.176.074.3.114.41.172,1.734.866,3.462,1.74,5.2,2.6a1.819,1.819,0,0,1,1.174,1.676" transform="translate(16.414 17.22)" fill="#ff9b25"/>
          <path id="Path_22031" data-name="Path 22031" d="M8.286,12.306h5.356V6.93H8.286Zm4.026-1.342H9.66V8.3h2.652Z" transform="translate(8.286 6.93)" fill="#ff9b25"/>
          <rect id="Rectangle_7010" data-name="Rectangle 7010" width="5.36" height="1.288" transform="translate(16.574 20.656)" fill="#ff9b25"/>
          <rect id="Rectangle_7011" data-name="Rectangle 7011" width="5.368" height="1.268" transform="translate(16.576 23.366)" fill="#ff9b25"/>
          <rect id="Rectangle_7012" data-name="Rectangle 7012" width="5.378" height="1.288" transform="translate(16.562 26.064)" fill="#ff9b25"/>
          <rect id="Rectangle_7013" data-name="Rectangle 7013" width="5.366" height="1.294" transform="translate(16.57 28.778)" fill="#ff9b25"/>
          <path id="Path_22032" data-name="Path 22032" d="M13.029,14.993H18.4V9.641H13.029Zm4.014-1.332H14.389V11.007h2.654Z" transform="translate(13.029 9.641)" fill="#ff9b25"/>
          <path id="Path_22033" data-name="Path 22033" d="M13.027,17.018H18.4V13.036H13.027Zm4.018-1.332H14.387V14.37h2.658Z" transform="translate(13.027 13.036)" fill="#ff9b25"/>
          <rect id="Rectangle_7014" data-name="Rectangle 7014" width="5.362" height="1.316" transform="translate(26.074 16.572)" fill="#ff9b25"/>
          <rect id="Rectangle_7015" data-name="Rectangle 7015" width="4" height="1.312" transform="translate(26.06 13.862)" fill="#ff9b25"/>
          <path id="Path_22034" data-name="Path 22034" d="M18.016,3.521h4.36v.01a6.514,6.514,0,0,1-.434.638H20.774a1.511,1.511,0,0,1,.326.69h1.242a.02.02,0,0,1,.022.018q-.417.63-.426.63h-.806a1.809,1.809,0,0,1-1.018,1.38,2.827,2.827,0,0,1-1.216.306V7.2q0,.048,2.624,3.138H20.366q-2.553-3-2.554-3.014V6.717l.008-.022a3.925,3.925,0,0,0,.53.03q1.434,0,1.78-.934a.727.727,0,0,0,.056-.284H17.6c-.012,0-.02-.006-.02-.018.288-.42.434-.63.44-.63H20.07v-.01a1.213,1.213,0,0,0-.684-.562,2.194,2.194,0,0,0-.652-.118h-1.15V4.147c.278-.416.42-.626.43-.626Z" transform="translate(17.576 3.521)" fill="#ff9b25"/>
        </g>
      </g>
    </g>
  </g>
</svg>
