<svg xmlns="http://www.w3.org/2000/svg" xmlns:xlink="http://www.w3.org/1999/xlink" width="64" height="64" viewBox="0 0 64 64">
  <defs>
    <clipPath id="clip-path">
      <rect id="Rectangle_6774" data-name="Rectangle 6774" width="48" height="48" fill="none"/>
    </clipPath>
  </defs>
  <g id="Group_15334" data-name="Group 15334" transform="translate(-879 -658)">
    <circle id="Ellipse_703" data-name="Ellipse 703" cx="32" cy="32" r="32" transform="translate(879 658)" fill="#fff3f3"/>
    <g id="Group_15333" data-name="Group 15333" transform="translate(887 666)">
      <g id="Group_15332" data-name="Group 15332" clip-path="url(#clip-path)">
        <path id="Path_21930" data-name="Path 21930" d="M32.251,2.26V41.02H5.175V5.108A6.164,6.164,0,0,1,8.231,2.26Z" transform="translate(5.175 2.26)" fill="#ffd4d4"/>
        <path id="Path_21931" data-name="Path 21931" d="M18.115,12.844A.846.846,0,0,0,17.269,12H7.7a.845.845,0,1,0,0,1.69h9.584a.842.842,0,0,0,.83-.846" transform="translate(6.853 12)" fill="#ff4646"/>
        <path id="Path_21932" data-name="Path 21932" d="M22.095,11.084a.846.846,0,0,0-.846-.846H7.7a.846.846,0,1,0,0,1.692H21.249a.846.846,0,0,0,.846-.846" transform="translate(6.853 10.238)" fill="#ff4646"/>
        <path id="Path_21933" data-name="Path 21933" d="M7.7,10.162h9.586a.847.847,0,0,0,0-1.694H7.7a.847.847,0,0,0,0,1.694" transform="translate(6.853 8.468)" fill="#ff4646"/>
        <path id="Path_21934" data-name="Path 21934" d="M11.347,15.58a2.585,2.585,0,0,0-3.58,0,2.531,2.531,0,1,0,3.58,0m-1.18,2.38a.789.789,0,0,1-.6.26.847.847,0,0,1-.6-.24l-.02-.02h.02a.833.833,0,0,1,0-1.2.849.849,0,1,1,1.2,1.2" transform="translate(7.083 14.86)" fill="#ff4646"/>
        <path id="Path_21935" data-name="Path 21935" d="M14.02,18.22a2.585,2.585,0,0,0-3.58,0,2.53,2.53,0,1,0,3.58,0m-1.2,2.4a.845.845,0,0,1-1.18,0,.833.833,0,0,1,0-1.2.87.87,0,0,1,1.2,0,.851.851,0,0,1-.02,1.2" transform="translate(9.69 17.5)" fill="#ff4646"/>
        <path id="Path_21936" data-name="Path 21936" d="M8.223,23.954a.845.845,0,0,0,.592-.254L16,16.52a.848.848,0,0,0-1.152-1.136l-7.18,7.182a.847.847,0,0,0,.558,1.388" transform="translate(7.465 15.286)" fill="#ff4646"/>
        <path id="Path_21937" data-name="Path 21937" d="M23.815,25.82a1.893,1.893,0,0,0,.42-.88v-.8a1.827,1.827,0,0,0-.42-.86,1.893,1.893,0,0,0,.42-.88v-.8a1.922,1.922,0,0,0-.42-.86,1.893,1.893,0,0,0,.42-.88v-.8a1.827,1.827,0,0,0-.42-.86,2.1,2.1,0,0,0,.42-.94,1.761,1.761,0,0,0,.04-.34,2.984,2.984,0,0,0-.04-.42,2.12,2.12,0,0,0-2.06-1.7h-5.94a2.073,2.073,0,0,0-1.64,3.4,1.967,1.967,0,0,0,0,2.54,1.967,1.967,0,0,0,0,2.54,1.967,1.967,0,0,0,0,2.54,2.048,2.048,0,0,0-.48,1.26,2.121,2.121,0,0,0,2.12,2.12h5.94a2.1,2.1,0,0,0,2.06-1.7,2.722,2.722,0,0,0,.04-.42,1.761,1.761,0,0,0-.04-.34,1.941,1.941,0,0,0-.42-.92m-1.64,1.68h-5.94a.42.42,0,1,1,0-.84h5.94a.42.42,0,0,1,0,.84m0-2.54h-5.94a.42.42,0,1,1,0-.84h5.94a.42.42,0,0,1,0,.84m0-2.54h-5.94a.42.42,0,1,1,0-.84h5.94a.42.42,0,0,1,0,.84m0-2.54h-5.94a.42.42,0,1,1,0-.84h5.94a.42.42,0,0,1,0,.84m0-2.54h-5.94a.42.42,0,1,1,0-.84h5.94a.42.42,0,0,1,0,.84" transform="translate(14.115 14.8)" fill="#ff4646"/>
        <path id="Path_21938" data-name="Path 21938" d="M33.585,2.84V26.82a.4.4,0,0,1-.04.22.813.813,0,0,1-.8.64.849.849,0,0,1-.84-.86V3.7H11.245a4.742,4.742,0,0,0-4.74,4.76v31a.845.845,0,0,0,.84.84h15.24a.85.85,0,0,1,0,1.7H7.345A2.527,2.527,0,0,1,4.8,39.46v-31A6.487,6.487,0,0,1,8.7,2.52,6.339,6.339,0,0,1,11.245,2h21.5a.88.88,0,0,1,.78.52.866.866,0,0,1,.02.1.719.719,0,0,1,.04.22" transform="translate(4.805 2)" fill="#ff4646"/>
      </g>
    </g>
  </g>
</svg>
