<svg id="Ledger" xmlns="http://www.w3.org/2000/svg" xmlns:xlink="http://www.w3.org/1999/xlink" width="24" height="24" viewBox="0 0 24 24">
  <defs>
    <clipPath id="clip-path">
      <rect id="Rectangle_6899" data-name="Rectangle 6899" width="24" height="24" fill="#3E85F0"/>
    </clipPath>
  </defs>
  <path id="Path_22007" data-name="Path 22007" d="M22.5,13.886V22.5H8.95V18.8H1.5V2.728H4.034V1.5H5.265V2.717H7.727V1.5H8.958V2.717H11.42V1.5h1.231V2.735h2.465V13.886ZM8.964,17.57V13.883h4.9V7.745H2.734V17.57Zm12.29-2.437H10.2V21.26H21.254ZM2.73,6.49H13.867V3.972h-1.22v1.2H11.413v-1.2H8.949V5.18H7.723v-1.2H5.259v1.2H4.025V3.971H2.73Z" fill="#3E85F0"/>
  <rect id="Rectangle_6896" data-name="Rectangle 6896" width="8.591" height="1.207" transform="translate(4.051 8.979)" fill="#3E85F0"/>
  <rect id="Rectangle_6897" data-name="Rectangle 6897" width="8.588" height="1.213" transform="translate(4.047 11.436)" fill="#3E85F0"/>
  <rect id="Rectangle_6898" data-name="Rectangle 6898" width="3.672" height="1.207" transform="translate(4.047 13.896)" fill="#3E85F0"/>
  <g id="Group_15607" data-name="Group 15607">
    <g id="Group_15606" data-name="Group 15606" clip-path="url(#clip-path)">
      <path id="Path_22008" data-name="Path 22008" d="M17.575,18.193a1.846,1.846,0,1,1-1.835-1.845,1.849,1.849,0,0,1,1.835,1.845m-1.231,0a.615.615,0,1,0-.612.612.621.621,0,0,0,.612-.612" fill="#3E85F0"/>
      <path id="Path_22009" data-name="Path 22009" d="M12.025,19.014l-.821-.82c.276-.269.56-.549.835-.818.26.264.541.547.81.818l-.824.82" fill="#3E85F0"/>
      <path id="Path_22010" data-name="Path 22010" d="M19.437,17.379l.794.794-.81.815-.8-.792.813-.817" fill="#3E85F0"/>
    </g>
  </g>
</svg>
