<svg id="List_of_Cheques" data-name="List of Cheques" xmlns="http://www.w3.org/2000/svg" xmlns:xlink="http://www.w3.org/1999/xlink" width="24" height="24" viewBox="0 0 24 24">
  <defs>
    <clipPath id="clip-path">
      <rect id="Rectangle_6891" data-name="Rectangle 6891" width="24" height="24" fill="#3c4043"/>
    </clipPath>
  </defs>
  <g id="Group_15603" data-name="Group 15603" clip-path="url(#clip-path)">
    <path id="Path_21998" data-name="Path 21998" d="M21.979,5.354a.533.533,0,0,0-.575-.5H5.7a.615.615,0,0,0-.649.473v2.18h1V6.151H7.713c-.355.449-.7.909-1.056,1.358H8.121c.325-.411.649-.835.983-1.246a.263.263,0,0,1,.21-.124H21v9.043h-1.37v1.3h1.809c.366,0,.565-.262.565-.735V5.591a.858.858,0,0,0-.021-.237" fill="#3c4043"/>
    <path id="Path_21999" data-name="Path 21999" d="M19.162,8.02a.538.538,0,0,0-.583-.5c-5.307,0-10.615.012-15.922,0A.622.622,0,0,0,2,7.995V18.671c.117.311.286.473.572.473H18.611c.371,0,.561-.249.561-.723V8.256a1.871,1.871,0,0,0-.01-.236m-15.8.922H5.136c-.593.7-1.176,1.407-1.769,2.092Zm14.46,8.707H3.356a1.249,1.249,0,0,1-.01-.2V13.065a.534.534,0,0,1,.1-.287c.953-1.233,1.907-2.441,2.86-3.65A.3.3,0,0,1,6.513,9H17.827Z" fill="#3c4043"/>
    <path id="Path_22000" data-name="Path 22000" d="M6.388,10.86H7.4a1.68,1.68,0,0,1,.573.1,1.035,1.035,0,0,1,.6.51H6.762s-.125.187-.386.561a.027.027,0,0,0,.024.025H8.668a.564.564,0,0,1-.05.249c-.2.561-.723.835-1.557.835a2.551,2.551,0,0,1-.461-.025l-.013.025v.548l2.243,2.69H9.839c-1.533-1.843-2.3-2.778-2.3-2.8v-.013A2.353,2.353,0,0,0,8.6,13.289a1.673,1.673,0,0,0,.623-.536,1.939,1.939,0,0,0,.274-.7h.7a5.269,5.269,0,0,0,.374-.573.013.013,0,0,0-.013-.013h-1.1a1.264,1.264,0,0,0-.287-.61H10.2a5.136,5.136,0,0,0,.386-.573v-.012h-3.7Z" fill="#3c4043"/>
    <path id="Path_22001" data-name="Path 22001" d="M15.447,11.41H11.534a.456.456,0,0,1-.455-.456V10.73a.455.455,0,0,1,.455-.455h3.913a.456.456,0,0,1,.456.455v.224a.456.456,0,0,1-.456.456" fill="#3c4043"/>
    <path id="Path_22002" data-name="Path 22002" d="M15.482,12.772H11.508c-.237,0-.424.249-.424.573v2.466c0,.324.187.573.424.573h3.974c.236,0,.423-.249.423-.573V13.345c0-.324-.187-.573-.423-.573m-.349,2.516c0,.162-.087.286-.2.286H12.056c-.112,0-.2-.124-.2-.286v-1.42c0-.162.087-.287.2-.287h2.878c.112,0,.2.125.2.287Z" fill="#3c4043"/>
  </g>
</svg>
