<svg xmlns="http://www.w3.org/2000/svg" xmlns:xlink="http://www.w3.org/1999/xlink" width="64" height="64" viewBox="0 0 64 64">
  <defs>
    <clipPath id="clip-path">
      <rect id="Rectangle_6742" data-name="Rectangle 6742" width="48" height="48" fill="none"/>
    </clipPath>
  </defs>
  <g id="Group_15291" data-name="Group 15291" transform="translate(-879 -348)">
    <circle id="Ellipse_703" data-name="Ellipse 703" cx="32" cy="32" r="32" transform="translate(879 348)" fill="#fff3f3"/>
    <g id="Group_15296" data-name="Group 15296" transform="translate(887 356)">
      <g id="Group_15295" data-name="Group 15295" clip-path="url(#clip-path)">
        <path id="Path_21837" data-name="Path 21837" d="M2,19.6a8.728,8.728,0,0,1,.356-.984A3.24,3.24,0,0,1,4.578,16.9c0-.412,0-.838,0-1.264a11.609,11.609,0,0,1,23.092-1.79,21.875,21.875,0,0,1,.122,2.688c.006.256.06.38.326.466a3.212,3.212,0,0,1-.942,6.282c-.65.01-1.3,0-1.96,0a7.291,7.291,0,0,1-4.948,6.144c.126.1.224.174.324.248a6.441,6.441,0,0,1,2.494,3.58.4.4,0,0,0,.474.36c1.262-.016,2.528.034,3.788-.018a2.725,2.725,0,0,1,3.064,2.564h3.832V24.6a4.356,4.356,0,0,1,2.77.444,2.48,2.48,0,0,1,1.1,1.974c.024.61.014,1.224.014,1.836q0,4.023,0,8.046c0,1.872-.418,2.492-2.142,3.168H17.312A.8.8,0,0,0,17.134,40a7.7,7.7,0,0,1-6.744-7.382,3.924,3.924,0,0,1,2.426-3.872c.1-.042.19-.094.286-.14,0-.036-.006-.072-.01-.106a3.166,3.166,0,0,0-.384-.054c-1.04,0-2.082.016-3.122-.008A5.111,5.111,0,0,1,4.728,24.48c-.1-.414-.132-.84-.2-1.26a3.2,3.2,0,0,1-2.172-1.7A8.14,8.14,0,0,1,2,20.532V19.6m17.4,3.062a4.358,4.358,0,0,1-.73,3.326,2.775,2.775,0,0,1,.72,2.316c.214-.058.39-.1.556-.152a5.844,5.844,0,0,0,3.99-5.586c.014-1.808,0-3.618,0-5.428,0-.754-.188-.94-.95-.94-2.2,0-4.4-.01-6.6,0a4.732,4.732,0,0,1-3.56-1.314,1.925,1.925,0,0,0-1.754-.616c-.038,0-.078,0-.116,0a2.5,2.5,0,0,0-2.488,2.456c-.032,2.12-.046,4.244.018,6.362a5.338,5.338,0,0,0,1.942,3.906.632.632,0,0,0,.372.166c.676.016,1.354.014,2.03,0a.365.365,0,0,0,.262-.15c.2-.348.378-.7.576-1.08a4.351,4.351,0,0,1-.688-3.274Zm-7.12-11.184c.1.292.184.55.274.806A3.874,3.874,0,0,0,14.4,14.46c1.1.606,2.29.418,3.58.446a5.592,5.592,0,0,1-1.73-3.026l1.19-.4c.076.226.144.42.21.616a3.849,3.849,0,0,0,3.906,2.81c.764,0,1.526,0,2.294,0,.34-3.262-3.494-6.988-7.374-7.094a7.753,7.753,0,0,0-7.81,5.966,4.285,4.285,0,0,1,2.75-.824c-.124-.382-.232-.712-.346-1.064l1.208-.416M16.36,35.06c.3-.28.592-.52.84-.8a.614.614,0,0,0,.134-.464,19.744,19.744,0,0,0-.51-2.04,4.486,4.486,0,0,0-.6-1.12A.721.721,0,0,0,15.7,30.4a2.975,2.975,0,0,1-1.624-.472.671.671,0,0,0-.466-.072,2.586,2.586,0,0,0-1.926,2.336,6.349,6.349,0,0,0,5.876,6.538c2.494.1,5,.034,7.494.038a.449.449,0,0,0,.136-.042V34.946a.511.511,0,0,0-.094-.034c-2.174,0-4.348-.006-6.52,0a.592.592,0,0,0-.362.176c-.3.3-.586.624-.87.932-.35-.34-.636-.622-.986-.962M26.49,16.828A10.475,10.475,0,0,0,21.106,6.476,10.21,10.21,0,0,0,9.694,7.552,10.347,10.347,0,0,0,5.9,16.822H7.118c.044-.87.026-1.72.14-2.554a9.023,9.023,0,0,1,17.954,1.074c.01.49,0,.98,0,1.486ZM36.84,36.19V28.472c0-.442.01-.884,0-1.326a1.2,1.2,0,0,0-1.294-1.216v9.818c0,.078-.024.172.008.232.046.082.134.2.208.2.346.02.694.008,1.082.008m-10.3,2.56c.13.01.22.02.31.02h8.586a2.335,2.335,0,0,0,.312-.02,1.234,1.234,0,0,0,1.068-1.232H26.536Zm-8.844-8.494c.214.72.424,1.41.626,2.1.116.4.1.958.36,1.154.28.21.816.086,1.24.092.63.01,1.262,0,1.936,0a5.288,5.288,0,0,0-2.808-3.34c-.47-.234-.932-.418-1.354-.01M16.214,26.53c-.26,0-.52-.014-.778,0a1.268,1.268,0,0,0-1.172,1.194,1.216,1.216,0,0,0,1.014,1.322,8.408,8.408,0,0,0,1.822,0,1.2,1.2,0,0,0,1.016-1.316,1.253,1.253,0,0,0-1.162-1.2c-.246-.016-.494,0-.74,0M26.5,18.15H25.248v3.836H26.5Zm-19.37,0H5.9v3.84H7.126ZM14.3,23.958c-.042.032-.084.064-.124.1.174.364.334.738.534,1.088a.476.476,0,0,0,.356.14c.75.012,1.5.008,2.248,0a.446.446,0,0,0,.282-.06,1.581,1.581,0,0,0,.488-1.268ZM8.6,26.934A7.2,7.2,0,0,1,7.218,23.48a.279.279,0,0,0-.186-.186c-.374-.018-.746-.008-1.112-.008A3.688,3.688,0,0,0,8.6,26.934m19.2-5.1a1.859,1.859,0,0,0,1.288-1.9,1.747,1.747,0,0,0-1.288-1.606Zm-23.228.02V18.28a1.885,1.885,0,0,0,0,3.572M26.554,34.91v1.256h2.518A1.242,1.242,0,0,0,27.9,34.914c-.44-.022-.882,0-1.35,0" transform="translate(2 3.936)" fill="#ff4646"/>
        <path id="Path_21838" data-name="Path 21838" d="M19.422,11.038c-1.08,0-2.106.006-3.132,0a1.932,1.932,0,0,1-1.978-1.5,2.554,2.554,0,0,1-.048-.58q-.006-2.442,0-4.882A1.929,1.929,0,0,1,16.334,2Q22,2,27.658,2a1.937,1.937,0,0,1,2.08,2.068q.006,2.439,0,4.88a1.948,1.948,0,0,1-2.068,2.086c-1.054.008-2.108-.01-3.162.012a.883.883,0,0,0-.536.224c-.624.592-1.222,1.208-1.828,1.816a1.562,1.562,0,0,1-2.722-1.136c0-.284,0-.568,0-.914m1.28-1.3c0,.734-.012,1.41.008,2.086a1.525,1.525,0,0,0,.186.466,1.527,1.527,0,0,0,.424-.21c.718-.7,1.414-1.418,2.138-2.11a.854.854,0,0,1,.534-.222c1.184-.02,2.368-.01,3.552-.01.714,0,.9-.184.9-.9q0-2.3,0-4.606c0-.764-.176-.938-.944-.938q-4.722,0-9.446,0c-.6,0-1.2-.008-1.794,0-.47.01-.716.234-.718.692q-.018,2.52,0,5.036c0,.478.258.706.74.71.652.006,1.3,0,1.952,0H20.7" transform="translate(14.26 2)" fill="#ff4646"/>
        <path id="Path_21839" data-name="Path 21839" d="M8.947,9.538l-1.21.416c.116.352.224.682.348,1.062a4.3,4.3,0,0,0-2.75.826A7.532,7.532,0,0,1,7.343,8.2a7.579,7.579,0,0,1,5.8-2.322c3.882.106,7.712,3.83,7.374,7.094H18.225a3.849,3.849,0,0,1-3.906-2.812c-.066-.194-.134-.39-.212-.614-.41.136-.8.268-1.188.4a5.594,5.594,0,0,0,1.728,3.028c-1.288-.03-2.478.16-3.58-.446a3.878,3.878,0,0,1-1.846-2.18c-.09-.256-.176-.514-.274-.806" transform="translate(5.335 5.872)" fill="#ffd4d4"/>
        <path id="Path_21840" data-name="Path 21840" d="M20.073,25.2c-.388,0-.736.012-1.08-.01-.076,0-.162-.118-.208-.2-.034-.06-.008-.152-.008-.23q0-4.719,0-9.44v-.378a1.2,1.2,0,0,1,1.294,1.214c.016.442,0,.886,0,1.328V25.2Z" transform="translate(18.767 14.93)" fill="#ffd4d4"/>
        <path id="Path_21841" data-name="Path 21841" d="M14.269,21.959V20.727H24.543a1.227,1.227,0,0,1-1.068,1.23,2,2,0,0,1-.31.022H14.579c-.09,0-.18-.012-.31-.02" transform="translate(14.269 20.727)" fill="#ffd4d4"/>
        <rect id="Rectangle_6737" data-name="Rectangle 6737" width="1.248" height="3.836" transform="translate(27.25 22.086)" fill="#ffd4d4"/>
        <rect id="Rectangle_6738" data-name="Rectangle 6738" width="1.222" height="3.84" transform="translate(7.904 22.086)" fill="#ffd4d4"/>
        <path id="Path_21842" data-name="Path 21842" d="M14.9,14.637V11.131a1.747,1.747,0,0,1,1.288,1.6,1.862,1.862,0,0,1-1.288,1.9" transform="translate(14.904 11.131)" fill="#ffd4d4"/>
        <path id="Path_21843" data-name="Path 21843" d="M3.932,14.678a1.883,1.883,0,0,1,0-3.57v3.57Z" transform="translate(2.648 11.108)" fill="#ffd4d4"/>
        <path id="Path_21844" data-name="Path 21844" d="M14.277,19.426c.468,0,.91-.018,1.35,0A1.242,1.242,0,0,1,16.8,20.682H14.277Z" transform="translate(14.277 19.42)" fill="#ffd4d4"/>
        <path id="Path_21845" data-name="Path 21845" d="M20.064,9.092H17.6c-.65,0-1.3,0-1.952,0-.484,0-.738-.232-.74-.71q-.015-2.517,0-5.036c0-.458.25-.682.718-.692.6-.01,1.2,0,1.8,0q4.722,0,9.446,0c.768,0,.942.174.942.938q0,2.3,0,4.606c0,.712-.188.9-.9.9-1.184,0-2.368-.01-3.552.01a.873.873,0,0,0-.534.22c-.722.694-1.42,1.414-2.138,2.112a1.515,1.515,0,0,1-.422.21,1.448,1.448,0,0,1-.186-.466c-.02-.676-.008-1.352-.008-2.086M16.232,7.784h3.8V3.946h-3.8ZM21.374,5.2h5.118V3.964H21.374Zm.018,2.574H26.5V6.53H21.392Z" transform="translate(14.898 2.646)" fill="#ffd4d4"/>
        <path id="Path_21846" data-name="Path 21846" d="M6.773,13.909H5.583a3.183,3.183,0,1,1,6.366-.01H10.715a1.885,1.885,0,0,0-.87-1.542,2.538,2.538,0,0,0-1.132-.336c-.992-.026-1.54.544-1.94,1.888" transform="translate(5.565 10.711)" fill="#ff4646"/>
        <path id="Path_21847" data-name="Path 21847" d="M15.857,13.917H14.6a1.844,1.844,0,0,0-.752-1.462,2.66,2.66,0,0,0-1.142-.422c-1.012-.088-1.588.478-2.048,1.888H9.421a3.118,3.118,0,0,1,1.488-2.682,3.061,3.061,0,0,1,3.426-.028,3.085,3.085,0,0,1,1.522,2.706" transform="translate(9.421 10.701)" fill="#ff4646"/>
        <rect id="Rectangle_6739" data-name="Rectangle 6739" width="3.8" height="3.838" transform="translate(31.13 6.592)" fill="#ff4646"/>
        <rect id="Rectangle_6740" data-name="Rectangle 6740" width="5.118" height="1.238" transform="translate(36.272 6.61)" fill="#ff4646"/>
        <rect id="Rectangle_6741" data-name="Rectangle 6741" width="5.106" height="1.246" transform="translate(36.29 9.176)" fill="#ff4646"/>
      </g>
    </g>
  </g>
</svg>
