<svg xmlns="http://www.w3.org/2000/svg" xmlns:xlink="http://www.w3.org/1999/xlink" width="64" height="64" viewBox="0 0 64 64">
  <defs>
    <clipPath id="clip-path">
      <rect id="Rectangle_6759" data-name="Rectangle 6759" width="48" height="48" fill="none"/>
    </clipPath>
  </defs>
  <g id="Group_15299" data-name="Group 15299" transform="translate(-1220 -503)">
    <circle id="Ellipse_704" data-name="Ellipse 704" cx="32" cy="32" r="32" transform="translate(1220 503)" fill="#e9fce8"/>
    <g id="Group_15323" data-name="Group 15323" transform="translate(1228 511)">
      <g id="Group_15323-2" data-name="Group 15323" clip-path="url(#clip-path)">
        <path id="Path_21904" data-name="Path 21904" d="M34.48,12.926v-.008a1.153,1.153,0,0,0-.094-.268.157.157,0,0,1-.028-.058,1.74,1.74,0,0,0-.172-.232L25.294,3.32a.939.939,0,0,0-.228-.176.193.193,0,0,0-.058-.028.753.753,0,0,0-.258-.094c-.006-.008-.014,0-.02-.008A1.582,1.582,0,0,0,24.536,3H5.572A1.08,1.08,0,0,0,4.5,4.09V37.91A1.081,1.081,0,0,0,5.572,39H33.43a1.079,1.079,0,0,0,1.07-1.09V13.136a1.025,1.025,0,0,0-.02-.21M25.608,6.72l5.236,5.326H25.608Z" transform="translate(4.5 3)" fill="#4dab4a"/>
        <path id="Path_21905" data-name="Path 21905" d="M31.285,35.731H5.571V4.089H22.393v7.958a1.082,1.082,0,0,0,1.072,1.09h7.82Z" transform="translate(5.571 4.089)" fill="#e0f2df"/>
        <path id="Path_21906" data-name="Path 21906" d="M8.415,11.473h2.41v2.452a1.072,1.072,0,1,0,2.144,0V11.473h2.41a1.09,1.09,0,0,0,0-2.18h-2.41V6.841a1.072,1.072,0,1,0-2.144,0V9.293H8.415a1.09,1.09,0,0,0,0,2.18" transform="translate(7.343 5.751)" fill="#4dab4a"/>
        <path id="Path_21907" data-name="Path 21907" d="M16.424,17.633H8.066a1.09,1.09,0,0,0,0,2.18h8.358a1.09,1.09,0,0,0,0-2.18" transform="translate(6.996 17.633)" fill="#4dab4a"/>
        <path id="Path_21908" data-name="Path 21908" d="M16.424,13.535H8.066a1.09,1.09,0,0,0,0,2.18h8.358a1.09,1.09,0,0,0,0-2.18" transform="translate(6.996 13.535)" fill="#4dab4a"/>
        <path id="Path_21909" data-name="Path 21909" d="M16.424,15.584H8.066a1.09,1.09,0,0,0,0,2.18h8.358a1.09,1.09,0,0,0,0-2.18" transform="translate(6.996 15.584)" fill="#4dab4a"/>
        <path id="Path_21910" data-name="Path 21910" d="M13.349,16.186c0,2.31,2.22,3.134,3.288,3.53h0c1.57.584,1.876.984,1.876,1.482,0,.552-.692,1.02-1.51,1.02a1.594,1.594,0,0,1-1.546-1.026,1.067,1.067,0,0,0-1.3-.786,1.088,1.088,0,0,0-.774,1.324,3.7,3.7,0,0,0,2.55,2.5v.636a1.072,1.072,0,1,0,2.144,0v-.62a3.239,3.239,0,0,0,2.582-3.05c0-2.308-2.214-3.13-3.282-3.526l-.006,0c-1.572-.584-1.88-.984-1.88-1.482,0-.554.694-1.018,1.512-1.018a1.586,1.586,0,0,1,1.544,1.024,1.069,1.069,0,0,0,1.3.786,1.091,1.091,0,0,0,.776-1.324,3.693,3.693,0,0,0-2.55-2.5v-.576a1.071,1.071,0,1,0-2.142,0v.562a3.235,3.235,0,0,0-2.584,3.048" transform="translate(13.349 11.486)" fill="#4dab4a"/>
        <path id="Path_21911" data-name="Path 21911" d="M16.424,11.486H8.066a1.09,1.09,0,0,0,0,2.18h8.358a1.09,1.09,0,0,0,0-2.18" transform="translate(6.996 11.486)" fill="#4dab4a"/>
      </g>
    </g>
  </g>
</svg>
