<svg xmlns="http://www.w3.org/2000/svg" xmlns:xlink="http://www.w3.org/1999/xlink" width="18" height="18" viewBox="0 0 18 18">
  <defs>
    <clipPath id="clip-path">
      <rect id="Rectangle_6661" data-name="Rectangle 6661" width="18" height="18" transform="translate(0.281)" fill="#ff4646"/>
    </clipPath>
  </defs>
  <g id="Group_15035" data-name="Group 15035" transform="translate(-0.281)">
    <g id="Group_15035-2" data-name="Group 15035" clip-path="url(#clip-path)">
      <path id="Path_21387" data-name="Path 21387" d="M16.679,6.346h-.1l.1-.014a.443.443,0,0,0-.121-.252L12.615,2.14a.5.5,0,0,0-.072-.059l-.02-.01a.5.5,0,0,0-.062-.035l-.034-.01a.248.248,0,0,0-.056-.017A.424.424,0,0,0,12.28,2H5.952a.473.473,0,0,0-.473.474V7.566a.474.474,0,0,0,.947,0V2.953h5.38V6.39a.474.474,0,0,0,.472.472l3.459.02v9.171H6.426v-.733a.474.474,0,0,0-.947,0v1.207A.473.473,0,0,0,5.952,17H16.211a.473.473,0,0,0,.473-.473V6.411a.362.362,0,0,0-.005-.064m-3.925-.429V3.623l2.308,2.306Z" transform="translate(-1.37 -0.5)" fill="#ff4646"/>
      <path id="Path_21388" data-name="Path 21388" d="M10.871,13.675a.271.271,0,0,0-.155-.133.887.887,0,0,0-.3-.04H10.1v1.642h.32a.515.515,0,0,0,.4-.137.707.707,0,0,0,.139-.415v-.341a3.367,3.367,0,0,0-.016-.348.632.632,0,0,0-.07-.229" transform="translate(-2.524 -3.376)" fill="#ff4646"/>
      <path id="Path_21389" data-name="Path 21389" d="M7.448,13.492h-.4v.889h.4c.246,0,.367-.152.367-.464a.484.484,0,0,0-.083-.328.362.362,0,0,0-.284-.1" transform="translate(-1.763 -3.373)" fill="#ff4646"/>
      <path id="Path_21390" data-name="Path 21390" d="M13.62,10.81H4.055a.474.474,0,0,0-.474.474v4.723a.473.473,0,0,0,.474.473H13.62a.473.473,0,0,0,.473-.473V11.284a.473.473,0,0,0-.473-.474M7.308,13.98a.962.962,0,0,1-.724.256h-.4V15h-.6V12.3h1a.851.851,0,0,1,.971.947,1.011,1.011,0,0,1-.247.733m2.588.227a1.193,1.193,0,0,1-.165.432.725.725,0,0,1-.36.28A1.713,1.713,0,0,1,8.783,15H7.866V12.3h.922a1.892,1.892,0,0,1,.569.073.7.7,0,0,1,.359.248,1.024,1.024,0,0,1,.179.4,2.965,2.965,0,0,1,.047.587,3.327,3.327,0,0,1-.047.6m2.2-1.377h-1.15v.71h.947v.533h-.947V15h-.6V12.3H12.1Z" transform="translate(-0.895 -2.703)" fill="#ff4646"/>
    </g>
  </g>
</svg>
