<svg xmlns="http://www.w3.org/2000/svg" xmlns:xlink="http://www.w3.org/1999/xlink" width="64" height="64" viewBox="0 0 64 64">
  <defs>
    <clipPath id="clip-path">
      <rect id="Rectangle_6755" data-name="Rectangle 6755" width="48" height="48" fill="none"/>
    </clipPath>
  </defs>
  <g id="Group_15296" data-name="Group 15296" transform="translate(-197 -503)">
    <circle id="Ellipse_703" data-name="Ellipse 703" cx="32" cy="32" r="32" transform="translate(197 503)" fill="#eef5ff"/>
    <g id="Group_15315" data-name="Group 15315" transform="translate(205 511)">
      <g id="Group_15314" data-name="Group 15314" clip-path="url(#clip-path)">
        <path id="Path_21857" data-name="Path 21857" d="M8.153,11.195a.827.827,0,0,0-.836.818.814.814,0,0,0,.836.816.844.844,0,0,0,.856-.816.858.858,0,0,0-.856-.818" transform="translate(7.317 11.195)" fill="#3e85f0"/>
        <path id="Path_21858" data-name="Path 21858" d="M17.96,11.195H9.9a.858.858,0,0,0-.856.818.844.844,0,0,0,.856.816H17.96a.8.8,0,0,0,.818-.816.811.811,0,0,0-.818-.818" transform="translate(9.046 11.195)" fill="#3e85f0"/>
        <path id="Path_21859" data-name="Path 21859" d="M8.153,9.114a.827.827,0,0,0-.836.818.814.814,0,0,0,.836.816.844.844,0,0,0,.856-.816.858.858,0,0,0-.856-.818" transform="translate(7.317 9.114)" fill="#3e85f0"/>
        <path id="Path_21860" data-name="Path 21860" d="M17.96,9.114H9.9a.858.858,0,0,0-.856.818.844.844,0,0,0,.856.816H17.96a.8.8,0,0,0,.818-.816.811.811,0,0,0-.818-.818" transform="translate(9.046 9.114)" fill="#3e85f0"/>
        <path id="Path_21861" data-name="Path 21861" d="M8.153,7.033a.817.817,0,1,0,0,1.634.818.818,0,1,0,0-1.634" transform="translate(7.317 7.033)" fill="#3e85f0"/>
        <path id="Path_21862" data-name="Path 21862" d="M17.96,7.033H9.9a.818.818,0,1,0,0,1.634H17.96a.817.817,0,1,0,0-1.634" transform="translate(9.046 7.033)" fill="#3e85f0"/>
        <path id="Path_21863" data-name="Path 21863" d="M17.96,7.033H9.9a.818.818,0,1,0,0,1.634H17.96a.817.817,0,1,0,0-1.634" transform="translate(9.046 7.033)" fill="#3e85f0"/>
        <path id="Path_21864" data-name="Path 21864" d="M17.96,9.114H9.9a.858.858,0,0,0-.856.818.844.844,0,0,0,.856.816H17.96a.8.8,0,0,0,.818-.816.811.811,0,0,0-.818-.818" transform="translate(9.046 9.114)" fill="#3e85f0"/>
        <path id="Path_21865" data-name="Path 21865" d="M17.96,11.195H9.9a.858.858,0,0,0-.856.818.844.844,0,0,0,.856.816H17.96a.8.8,0,0,0,.818-.816.811.811,0,0,0-.818-.818" transform="translate(9.046 11.195)" fill="#3e85f0"/>
        <path id="Path_21866" data-name="Path 21866" d="M8.153,7.033a.817.817,0,1,0,0,1.634.818.818,0,1,0,0-1.634" transform="translate(7.317 7.033)" fill="#3e85f0"/>
        <path id="Path_21867" data-name="Path 21867" d="M8.153,9.114a.827.827,0,0,0-.836.818.814.814,0,0,0,.836.816.844.844,0,0,0,.856-.816.858.858,0,0,0-.856-.818" transform="translate(7.317 9.114)" fill="#3e85f0"/>
        <path id="Path_21868" data-name="Path 21868" d="M8.153,11.195a.827.827,0,0,0-.836.818.814.814,0,0,0,.836.816.844.844,0,0,0,.856-.816.858.858,0,0,0-.856-.818" transform="translate(7.317 11.195)" fill="#3e85f0"/>
        <path id="Path_21869" data-name="Path 21869" d="M8.153,11.195a.827.827,0,0,0-.836.818.814.814,0,0,0,.836.816.844.844,0,0,0,.856-.816.858.858,0,0,0-.856-.818" transform="translate(7.317 11.195)" fill="#3e85f0"/>
        <path id="Path_21870" data-name="Path 21870" d="M8.153,9.114a.827.827,0,0,0-.836.818.814.814,0,0,0,.836.816.844.844,0,0,0,.856-.816.858.858,0,0,0-.856-.818" transform="translate(7.317 9.114)" fill="#3e85f0"/>
        <path id="Path_21871" data-name="Path 21871" d="M8.153,7.033a.817.817,0,1,0,0,1.634.818.818,0,1,0,0-1.634" transform="translate(7.317 7.033)" fill="#3e85f0"/>
        <path id="Path_21872" data-name="Path 21872" d="M17.96,11.195H9.9a.858.858,0,0,0-.856.818.844.844,0,0,0,.856.816H17.96a.8.8,0,0,0,.818-.816.811.811,0,0,0-.818-.818" transform="translate(9.046 11.195)" fill="#3e85f0"/>
        <path id="Path_21873" data-name="Path 21873" d="M17.96,9.114H9.9a.858.858,0,0,0-.856.818.844.844,0,0,0,.856.816H17.96a.8.8,0,0,0,.818-.816.811.811,0,0,0-.818-.818" transform="translate(9.046 9.114)" fill="#3e85f0"/>
        <path id="Path_21874" data-name="Path 21874" d="M17.96,7.033H9.9a.818.818,0,1,0,0,1.634H17.96a.817.817,0,1,0,0-1.634" transform="translate(9.046 7.033)" fill="#3e85f0"/>
        <path id="Path_21875" data-name="Path 21875" d="M29.2,2.126a.8.8,0,0,0-.8-.036L25.762,3.306,23.14,2.09a.809.809,0,0,0-.724,0L19.774,3.306,17.152,2.09a.767.767,0,0,0-.7,0L13.826,3.306,11.2,2.09a.887.887,0,0,0-.76,0l-2.6,1.216L5.234,2.09a.885.885,0,0,0-1.158.38A1.111,1.111,0,0,0,4,2.832V35.444a.843.843,0,0,0,.854.814,1.271,1.271,0,0,0,.38-.076l2.6-1.234.152.076c0-.058-.018-.134-.018-.19a2.3,2.3,0,0,0-.76-1.388l-1.52.686V4.124l1.786.814a.941.941,0,0,0,.722,0l2.622-1.216,2.624,1.216a.941.941,0,0,0,.722,0L16.79,3.722l2.624,1.216a.941.941,0,0,0,.722,0l2.622-1.216L25.4,4.938a.992.992,0,0,0,.742,0l1.786-.814V26.662l1.692-.3V2.832a.811.811,0,0,0-.418-.706" transform="translate(4 2)" fill="#3e85f0"/>
        <path id="Path_21876" data-name="Path 21876" d="M17.96,7.033H9.9a.818.818,0,1,0,0,1.634H17.96a.817.817,0,1,0,0-1.634" transform="translate(9.046 7.033)" fill="#3e85f0"/>
        <path id="Path_21877" data-name="Path 21877" d="M17.96,9.114H9.9a.858.858,0,0,0-.856.818.844.844,0,0,0,.856.816H17.96a.8.8,0,0,0,.818-.816.811.811,0,0,0-.818-.818" transform="translate(9.046 9.114)" fill="#3e85f0"/>
        <path id="Path_21878" data-name="Path 21878" d="M17.96,11.195H9.9a.858.858,0,0,0-.856.818.844.844,0,0,0,.856.816H17.96a.8.8,0,0,0,.818-.816.811.811,0,0,0-.818-.818" transform="translate(9.046 11.195)" fill="#3e85f0"/>
        <path id="Path_21879" data-name="Path 21879" d="M8.153,7.033a.817.817,0,1,0,0,1.634.818.818,0,1,0,0-1.634" transform="translate(7.317 7.033)" fill="#3e85f0"/>
        <path id="Path_21880" data-name="Path 21880" d="M8.153,9.114a.827.827,0,0,0-.836.818.814.814,0,0,0,.836.816.844.844,0,0,0,.856-.816.858.858,0,0,0-.856-.818" transform="translate(7.317 9.114)" fill="#3e85f0"/>
        <path id="Path_21881" data-name="Path 21881" d="M8.153,11.195a.827.827,0,0,0-.836.818.814.814,0,0,0,.836.816.844.844,0,0,0,.856-.816.858.858,0,0,0-.856-.818" transform="translate(7.317 11.195)" fill="#3e85f0"/>
        <path id="Path_21882" data-name="Path 21882" d="M17.96,7.033H9.9a.818.818,0,1,0,0,1.634H17.96a.817.817,0,1,0,0-1.634" transform="translate(9.046 7.033)" fill="#3e85f0"/>
        <path id="Path_21883" data-name="Path 21883" d="M17.96,9.114H9.9a.858.858,0,0,0-.856.818.844.844,0,0,0,.856.816H17.96a.8.8,0,0,0,.818-.816.811.811,0,0,0-.818-.818" transform="translate(9.046 9.114)" fill="#3e85f0"/>
        <path id="Path_21884" data-name="Path 21884" d="M17.96,11.195H9.9a.858.858,0,0,0-.856.818.844.844,0,0,0,.856.816H17.96a.8.8,0,0,0,.818-.816.811.811,0,0,0-.818-.818" transform="translate(9.046 11.195)" fill="#3e85f0"/>
        <path id="Path_21885" data-name="Path 21885" d="M8.153,7.033a.817.817,0,1,0,0,1.634.818.818,0,1,0,0-1.634" transform="translate(7.317 7.033)" fill="#3e85f0"/>
        <path id="Path_21886" data-name="Path 21886" d="M8.153,9.114a.827.827,0,0,0-.836.818.814.814,0,0,0,.836.816.844.844,0,0,0,.856-.816.858.858,0,0,0-.856-.818" transform="translate(7.317 9.114)" fill="#3e85f0"/>
        <path id="Path_21887" data-name="Path 21887" d="M8.153,11.195a.827.827,0,0,0-.836.818.814.814,0,0,0,.836.816.844.844,0,0,0,.856-.816.858.858,0,0,0-.856-.818" transform="translate(7.317 11.195)" fill="#3e85f0"/>
        <path id="Path_21888" data-name="Path 21888" d="M14.888,29.024l-.374-2.166a.519.519,0,0,0-.646-.434.535.535,0,0,0-.44.652l.374,2.166L8.18,30.3,7.658,27.29a3.653,3.653,0,0,0,2.39-4.118A3.587,3.587,0,0,0,6.406,20.21L5.886,17.2l5.622-1.058.374,2.166a.578.578,0,0,0,.442.466.441.441,0,0,0,.2,0,.535.535,0,0,0,.44-.652l-.374-2.166,17.99-3.424.52,3.012a3.679,3.679,0,0,0-.9,6.466,3.513,3.513,0,0,0,2.152.612l.522,3.012Z" transform="translate(5.886 12.53)" fill="#d2e4ff"/>
        <path id="Path_21889" data-name="Path 21889" d="M34,22.48a.648.648,0,0,0-.246-.356.473.473,0,0,0-.392-.094,2.445,2.445,0,0,1-1.864-.4A2.377,2.377,0,0,1,30.463,20a2.508,2.508,0,0,1,2.01-2.908.548.548,0,0,0,.442-.664l-.736-4.066a.486.486,0,0,0-.638-.426l-19.1,3.594L5.719,16.85a.531.531,0,0,0-.442.64l.736,4.068a.5.5,0,0,0,.636.426,2.471,2.471,0,0,1,2.92,1.986A2.57,2.57,0,0,1,7.533,26.9a.9.9,0,0,0-.368.236.814.814,0,0,0-.1.4L7.8,31.61a.593.593,0,0,0,.442.472.533.533,0,0,0,.2,0l25.8-4.92a.814.814,0,0,0,.392-.236.461.461,0,0,0,.1-.378ZM15.5,29.646l-.368-2.176a.552.552,0,1,0-1.078.236l.366,2.152L8.809,30.924l-.54-3a3.643,3.643,0,0,0,2.4-4.116,3.6,3.6,0,0,0-3.654-2.98l-.514-3,5.616-1.064.392,2.176a.6.6,0,0,0,.442.474h.2a.569.569,0,0,0,.442-.664L13.2,16.566l18-3.4.514,3a3.651,3.651,0,0,0-2.378,4.116,3.463,3.463,0,0,0,1.5,2.342,3.31,3.31,0,0,0,2.132.614l.54,3.028Z" transform="translate(5.263 11.908)" fill="#3e85f0"/>
        <path id="Path_21890" data-name="Path 21890" d="M18.5,23.568l-1.52.26c-2.772-2.128-4.146-3.216-4.146-3.216l-.146-.78v-.024a3.906,3.906,0,0,0,.712-.1c1.274-.212,1.986-.756,2.158-1.608a1,1,0,0,0,0-.378l-3.458.616s-.026,0-.026-.024c.3-.592.418-.9.442-.9l2.722-.5a1.549,1.549,0,0,0-1.054-.544,2.721,2.721,0,0,0-.884,0l-1.544.26v-.024a6.206,6.206,0,0,1,.442-.9L17.987,14.7c-.246.568-.394.876-.418.924l-1.57.26a2.041,2.041,0,0,1,.614.8l1.642-.284c.026,0,.05,0,.05.024-.27.59-.418.874-.418.874l-1.078.19a2.53,2.53,0,0,1-.22,1.088,2.418,2.418,0,0,1-.786.922,3.705,3.705,0,0,1-1.544.686c0,.048,1.422,1.158,4.242,3.382" transform="translate(11.757 14.698)" fill="#3e85f0"/>
        <path id="Path_21891" data-name="Path 21891" d="M10.808,20.185a.529.529,0,0,1-.442.638.274.274,0,0,1-.2,0,.54.54,0,0,1-.442-.472L9.14,17.135a.532.532,0,0,1,.442-.64.5.5,0,0,1,.638.426Z" transform="translate(9.126 16.473)" fill="#3e85f0"/>
      </g>
    </g>
  </g>
</svg>
