<svg xmlns="http://www.w3.org/2000/svg" xmlns:xlink="http://www.w3.org/1999/xlink" width="64" height="64" viewBox="0 0 64 64">
  <defs>
    <clipPath id="clip-path">
      <rect id="Rectangle_6758" data-name="Rectangle 6758" width="48" height="48" fill="none"/>
    </clipPath>
  </defs>
  <g id="Group_15298" data-name="Group 15298" transform="translate(-879 -503)">
    <circle id="Ellipse_703" data-name="Ellipse 703" cx="32" cy="32" r="32" transform="translate(879 503)" fill="#fff3f3"/>
    <g id="Group_15321" data-name="Group 15321" transform="translate(887 511)">
      <rect id="Rectangle_6757" data-name="Rectangle 6757" width="8.688" height="5.488" transform="translate(19.106 8.902)" fill="#ffd4d4"/>
      <g id="Group_15320" data-name="Group 15320">
        <g id="Group_15319" data-name="Group 15319" clip-path="url(#clip-path)">
          <path id="Path_21899" data-name="Path 21899" d="M27.614,15.77a7.1,7.1,0,0,1-2.376,5.348.637.637,0,0,1-.068.062,7.818,7.818,0,0,1-3.73,1.81,7.96,7.96,0,0,1-1.46.134c-.172,0-.34-.006-.508-.016a7.984,7.984,0,0,1-.988-.124,7.752,7.752,0,0,1-5.008-3.306c-.036-.05-.068-.1-.1-.154a7.489,7.489,0,0,1-.666-1.342c-.02-.054-.04-.11-.058-.164a7.264,7.264,0,0,1,.658-5.948c.022-.036.044-.072.066-.11a7.7,7.7,0,0,1,6.578-3.622c.214,0,.424.01.632.028a7.536,7.536,0,0,1,7,6.818,1.2,1.2,0,0,1,.014.146c.01.146.014.294.014.44" transform="translate(12.296 8.338)" fill="#ffd4d4"/>
          <path id="Path_21900" data-name="Path 21900" d="M33.774,13.6h.016a1.088,1.088,0,0,0,1.1-1.07v-3.2a3.143,3.143,0,0,0-1.12-2.386,3.336,3.336,0,0,0-.386-.3,3.49,3.49,0,0,0-1.806-.512H24.96V5.056A1.073,1.073,0,0,0,23.87,4H15.038a1.087,1.087,0,0,0-1.1,1.056V6.128H7.31A3.49,3.49,0,0,0,5.5,6.64a3.328,3.328,0,0,0-.528.43A3.1,3.1,0,0,0,4,9.328V32.8a3.1,3.1,0,0,0,.976,2.258,2.809,2.809,0,0,0,.48.384A3.333,3.333,0,0,0,7.31,36H31.582a3.333,3.333,0,0,0,1.854-.56,2.541,2.541,0,0,0,.338-.256,3.14,3.14,0,0,0,1.12-2.386v-4.27a1.089,1.089,0,0,0-1.1-1.072h-.016a1.086,1.086,0,0,0-1.09,1.072V32.8a1.075,1.075,0,0,1-1.1,1.058H7.31a1.075,1.075,0,0,1-1.1-1.058V9.328a1.088,1.088,0,0,1,1.1-1.072h6.624V10.4a1.076,1.076,0,0,0,1.1,1.056H23.87A1.063,1.063,0,0,0,24.96,10.4V8.256h6.622a1.088,1.088,0,0,1,1.1,1.072v3.2a1.085,1.085,0,0,0,1.09,1.07M22.766,9.328H16.142V6.13h6.624Z" transform="translate(4 4)" fill="#ff4646"/>
          <path id="Path_21901" data-name="Path 21901" d="M27.719,25.864a1.089,1.089,0,0,0-1.1,1.072v1.056H14.487V22.664a1.089,1.089,0,0,0-1.1-1.072H7.865V8.792h2.208a1.074,1.074,0,0,0,1.1-1.056,1.088,1.088,0,0,0-1.1-1.072H6.759a1.089,1.089,0,0,0-1.1,1.072V22.664a1.016,1.016,0,0,0,.32.754l6.624,6.4a1.369,1.369,0,0,0,.352.24,1.427,1.427,0,0,0,.432.078H27.719a1.088,1.088,0,0,0,1.1-1.072V26.936a1.089,1.089,0,0,0-1.1-1.072m-15.44.624L9.417,23.736h2.862Z" transform="translate(5.655 6.664)" fill="#ff4646"/>
          <path id="Path_21902" data-name="Path 21902" d="M16.252,12.425a1.127,1.127,0,0,0-1.56,0,1.039,1.039,0,0,0,0,1.508L16.9,16.067a1.131,1.131,0,0,0,1.56,0L22.872,11.8a1.039,1.039,0,0,0,0-1.508,1.131,1.131,0,0,0-1.56,0l-3.634,3.514Z" transform="translate(14.368 9.979)" fill="#ff4646"/>
          <path id="Path_21903" data-name="Path 21903" d="M27.723,15.732a7.236,7.236,0,0,1-1.576,4.506,7.151,7.151,0,0,1-.888.954.649.649,0,0,1-.07.062,7.8,7.8,0,0,1-3.728,1.81A7.982,7.982,0,0,1,20,23.2c-.17,0-.34-.006-.506-.016a8.333,8.333,0,0,1-.988-.124,7.756,7.756,0,0,1-5.01-3.306c-.034-.05-.066-.1-.1-.154a7.366,7.366,0,0,1-.668-1.342c-.018-.054-.038-.11-.058-.164a7.245,7.245,0,0,1,.66-6.12q.03-.054.066-.108a7.775,7.775,0,0,1,6.6-3.6,1.115,1.115,0,0,1,.606.176,1.056,1.056,0,0,1,.5.892A1.083,1.083,0,0,1,20,10.4a5.434,5.434,0,0,0-5.516,5.334,5.52,5.52,0,0,0,11.034,0,1.084,1.084,0,0,1,1.1-1.068,1.1,1.1,0,0,1,.988.594l.014.026a1.029,1.029,0,0,1,.1.448" transform="translate(12.277 8.264)" fill="#ff4646"/>
        </g>
      </g>
    </g>
  </g>
</svg>
