<svg id="Set_Up" data-name="Set Up" xmlns="http://www.w3.org/2000/svg" xmlns:xlink="http://www.w3.org/1999/xlink" width="24" height="24" viewBox="0 0 24 24">
  <defs>
    <clipPath id="clip-path">
      <rect id="Rectangle_6886" data-name="Rectangle 6886" width="24" height="24" fill="#3c4043"/>
    </clipPath>
  </defs>
  <g id="Group_15575" data-name="Group 15575" clip-path="url(#clip-path)">
    <path id="Path_21977" data-name="Path 21977" d="M19.87,14.305c.03-.07.08-.17.14-.18.67-.17,1.33-.33,1.99-.49v-3.28c-.66-.16-1.32-.31-1.99-.48-.06-.02-.11-.11-.14-.18-.22-.52-.41-1.05-.65-1.56a.392.392,0,0,1,.02-.44c.32-.52.63-1.05.94-1.57l-2.31-2.31c-.54.32-1.09.65-1.64.98a.254.254,0,0,1-.3.01c-.49-.22-.99-.45-1.5-.63a.491.491,0,0,1-.37-.4c-.13-.6-.28-1.19-.43-1.78H10.37c-.16.64-.32,1.28-.47,1.92a.271.271,0,0,1-.19.21c-.56.22-1.12.46-1.67.7a.248.248,0,0,1-.25-.01c-.45-.28-.91-.56-1.37-.83-.1-.06-.21-.12-.28-.17L3.82,6.135c.32.53.65,1.09.98,1.64a.259.259,0,0,1,.02.28c-.24.54-.47,1.08-.69,1.63-.04.11-.08.18-.21.21-.64.15-1.28.31-1.92.47v3.26c.65.16,1.29.33,1.93.48.12.02.16.08.2.19.22.54.44,1.09.67,1.62a.3.3,0,0,1-.01.33c-.33.54-.66,1.09-.96,1.6l2.32,2.32c.53-.31,1.08-.65,1.64-.97a.25.25,0,0,1,.22-.03c.58.23,1.16.48,1.74.72a.325.325,0,0,1,.13.13c.16.66.32,1.33.48,1.99h3.28c.16-.66.32-1.33.48-1.99.01-.05.08-.1.13-.12.58-.25,1.16-.49,1.74-.73a.287.287,0,0,1,.22.03c.56.32,1.11.66,1.63.97.78-.77,1.54-1.54,2.33-2.32-.3-.49-.61-1.02-.93-1.55a.376.376,0,0,1-.02-.43c.23-.51.43-1.04.65-1.56m-1.03-1.35a.607.607,0,0,0-.58.57,5.7,5.7,0,0,1-.91,2.08.21.21,0,0,0-.01.27c.28.45.55.9.82,1.35-.32.31-.62.61-.94.93-.42-.25-.87-.51-1.31-.79a.272.272,0,0,0-.35.01,6.36,6.36,0,0,1-2.33.96.213.213,0,0,0-.19.19c-.11.48-.24.95-.35,1.43-.03.13-.08.16-.2.16-.38-.01-.75,0-1.14,0-.11-.43-.24-.85-.31-1.28a.588.588,0,0,0-.56-.57,5.56,5.56,0,0,1-2.07-.91.241.241,0,0,0-.3,0c-.45.28-.9.54-1.34.81-.31-.32-.61-.62-.93-.94.23-.39.46-.81.73-1.21a.426.426,0,0,0-.01-.56,6.026,6.026,0,0,1-.9-2.23.223.223,0,0,0-.19-.19c-.48-.11-.95-.24-1.43-.35-.11-.02-.16-.06-.16-.18.01-.38.01-.76.01-1.16.43-.11.84-.24,1.27-.31a.6.6,0,0,0,.58-.57,5.384,5.384,0,0,1,.9-2.05.255.255,0,0,0,0-.31c-.27-.44-.54-.9-.8-1.33l.94-.94c.36.22.76.44,1.13.69a.517.517,0,0,0,.68.01,5.6,5.6,0,0,1,2.13-.86.286.286,0,0,0,.25-.24c.1-.48.22-.95.35-1.41.01-.06.07-.13.12-.13.4-.01.8-.01,1.21-.01.11.43.24.85.31,1.27a.6.6,0,0,0,.57.58,5.429,5.429,0,0,1,1.99.86.333.333,0,0,0,.43.01c.42-.27.86-.52,1.27-.77.32.31.62.62.94.94-.2.33-.39.7-.63,1.03a.66.66,0,0,0,0,.89,5.635,5.635,0,0,1,.81,2.07.2.2,0,0,0,.19.19c.48.12.96.23,1.44.36.05.01.13.08.13.12.01.4.01.8.01,1.22-.43.1-.85.23-1.27.3" fill="#3c4043"/>
    <path id="Path_21978" data-name="Path 21978" d="M12.01,6.865a5.135,5.135,0,1,0,5.12,5.13,5.141,5.141,0,0,0-5.12-5.13m-1.62,8.09a1.621,1.621,0,0,1,1.52-1.27,1.659,1.659,0,0,1,1.71,1.27,3.4,3.4,0,0,1-3.23,0m.77-3.81a.839.839,0,0,1,.85-.83.847.847,0,0,1,.83.86.84.84,0,0,1-1.68-.03m3.18,3.25a2.572,2.572,0,0,0-2.13-1.55,1.72,1.72,0,0,0,1.46-1.88,1.682,1.682,0,1,0-1.88,1.87A2.582,2.582,0,0,0,9.66,14.4a3.3,3.3,0,0,1-.91-3.28,3.368,3.368,0,0,1,6.38-.36,3.328,3.328,0,0,1-.79,3.64" fill="#3c4043"/>
  </g>
</svg>
