<svg id="Student_A_C" data-name="Student A/C" xmlns="http://www.w3.org/2000/svg" xmlns:xlink="http://www.w3.org/1999/xlink" width="24" height="24" viewBox="0 0 24 24">
  <defs>
    <clipPath id="clip-path">
      <rect id="Rectangle_6882" data-name="Rectangle 6882" width="24" height="24" fill="#3E85F0"/>
    </clipPath>
  </defs>
  <g id="Group_15567" data-name="Group 15567" clip-path="url(#clip-path)">
    <path id="Path_21966" data-name="Path 21966" d="M12.5,10a3,3,0,1,0-3,3,3,3,0,0,0,3-3m-3,1a1,1,0,1,1,1-1,1,1,0,0,1-1,1" fill="#3E85F0"/>
    <path id="Path_21967" data-name="Path 21967" d="M16,13a1.993,1.993,0,1,0-.014,0H16" fill="#3E85F0"/>
    <path id="Path_21968" data-name="Path 21968" d="M11.99,2.01a10,10,0,1,0,10,10,10,10,0,0,0-10-10M5.84,17.12A6.812,6.812,0,0,1,9.5,16.01c.07,0,.15.01.23.01a4.82,4.82,0,0,1,1.3-1.86A9.035,9.035,0,0,0,9.5,14a8.937,8.937,0,0,0-4.73,1.43A7.88,7.88,0,0,1,3.99,12a8,8,0,1,1,15.25,3.37A7.043,7.043,0,0,0,16,14.5c-1.52,0-4.5.81-4.5,2.7v2.78a7.933,7.933,0,0,1-5.66-2.86" fill="#3E85F0"/>
  </g>
</svg>
