<svg xmlns="http://www.w3.org/2000/svg" xmlns:xlink="http://www.w3.org/1999/xlink" width="64" height="64" viewBox="0 0 64 64">
  <defs>
    <clipPath id="clip-path">
      <rect id="Rectangle_7003" data-name="Rectangle 7003" width="48" height="48" fill="none"/>
    </clipPath>
  </defs>
  <g id="Group_15840" data-name="Group 15840" transform="translate(-198 -277)">
    <circle id="Ellipse_703" data-name="Ellipse 703" cx="32" cy="32" r="32" transform="translate(198 277)" fill="#fff5e9"/>
    <g id="Group_15836" data-name="Group 15836" transform="translate(206 285)">
      <g id="Group_15835" data-name="Group 15835" clip-path="url(#clip-path)">
        <path id="Path_22011" data-name="Path 22011" d="M5.08,7.22A3.152,3.152,0,0,1,8.16,4a3.152,3.152,0,0,1,3.08,3.22,3.152,3.152,0,0,1-3.08,3.22A3.152,3.152,0,0,1,5.08,7.22" fill="#ffddb4"/>
        <path id="Path_22012" data-name="Path 22012" d="M14.32,15.22v1.64H2V15.22c0-2.68,4.08-3.84,6.16-3.84s6.16,1.16,6.16,3.84" fill="#ffddb4"/>
        <path id="Path_22013" data-name="Path 22013" d="M36.04,33.6a3.407,3.407,0,0,1,2.14-3.22h2.36a3.427,3.427,0,1,1-4.5,3.22" fill="#ffddb4"/>
        <path id="Path_22014" data-name="Path 22014" d="M46,42.24V44H32.74V42.24c0-2.9,4.38-4.14,6.62-4.14,2.26,0,6.64,1.24,6.64,4.14" fill="#ffddb4"/>
        <path id="Path_22015" data-name="Path 22015" d="M42.32,21.14v.66a8.416,8.416,0,0,1-.76,1.06q-3.57,3.78-7.2,7.52c-.66.7-1.32,1.38-2,2.08-.1.12-.22.24-.34.36a1.955,1.955,0,0,1-.94.58c-.94.2-1.66-.5-1.68-1.6V27.46h-.54c-4.96,0-9.94-.02-14.9.02a1.616,1.616,0,0,1-1.78-1.88c.04-.62.02-1.26.02-1.82-2.14,2.24-4.3,4.48-6.4,6.7,2.08,2.16,4.24,4.42,6.4,6.68V35.3c0-1.3.52-1.84,1.76-1.84H24.78a2.532,2.532,0,0,1,.78.1,1.445,1.445,0,0,1,.96,1.54,1.471,1.471,0,0,1-1.28,1.34,3.7,3.7,0,0,1-.46.02h-9.7c0,.16-.02.3-.02.44v3.82a1.636,1.636,0,0,1-.66,1.48,1.352,1.352,0,0,1-1.64-.08c-.14-.1-.24-.22-.36-.32-3.2-3.36-6.42-6.7-9.62-10.06a1.607,1.607,0,0,1-.02-2.54l9.66-10.08a2.076,2.076,0,0,1,.96-.58c.92-.22,1.66.48,1.68,1.56.02,1.3,0,2.6,0,3.9v.48H30.64c1.08,0,1.64.58,1.64,1.72v2c2.16-2.26,4.32-4.52,6.44-6.72L32.3,14.76c0,.04-.02.14-.02.24,0,.66,0,1.32-.02,2a1.439,1.439,0,0,1-1.28,1.46c-.1,0-.2.02-.3.02H19.54a2.515,2.515,0,0,1-.66-.1,1.467,1.467,0,0,1-.94-1.54A1.451,1.451,0,0,1,19.2,15.5a3.854,3.854,0,0,1,.48-.02H29.4V11.2a1.541,1.541,0,0,1,.9-1.58,1.4,1.4,0,0,1,1.7.46c3.24,3.4,6.5,6.78,9.74,10.2a5.387,5.387,0,0,1,.58.86" fill="#ff9b25"/>
        <path id="Path_22016" data-name="Path 22016" d="M40.54,30.38a3.021,3.021,0,0,0-2.36,0,3.322,3.322,0,1,0,2.36,0m-1.18,4.38a1.15,1.15,0,1,1,1.12-1.16,1.137,1.137,0,0,1-1.12,1.16" fill="#ff9b25"/>
        <path id="Path_22017" data-name="Path 22017" d="M39.36,38.1c-2.24,0-6.62,1.24-6.62,4.14V44H46V42.24c0-2.9-4.38-4.14-6.64-4.14m-4.08,3.58a7.143,7.143,0,0,1,8.16,0Z" fill="#ff9b25"/>
        <path id="Path_22018" data-name="Path 22018" d="M8.16,4A3.152,3.152,0,0,0,5.08,7.22a3.152,3.152,0,0,0,3.08,3.22,3.152,3.152,0,0,0,3.08-3.22A3.152,3.152,0,0,0,8.16,4m0,4.28a1.071,1.071,0,0,1,0-2.14,1.07,1.07,0,0,1,0,2.14" fill="#ff9b25"/>
        <path id="Path_22019" data-name="Path 22019" d="M8.16,11.38C6.08,11.38,2,12.54,2,15.22v1.64H14.32V15.22c0-2.68-4.08-3.84-6.16-3.84M4.38,14.72a6.937,6.937,0,0,1,3.78-1.2,7.055,7.055,0,0,1,3.8,1.2Z" fill="#ff9b25"/>
      </g>
    </g>
  </g>
</svg>
