<svg xmlns="http://www.w3.org/2000/svg" xmlns:xlink="http://www.w3.org/1999/xlink" width="64" height="64" viewBox="0 0 64 64">
  <defs>
    <clipPath id="clip-path">
      <rect id="Rectangle_7004" data-name="Rectangle 7004" width="48" height="48" fill="none"/>
    </clipPath>
  </defs>
  <g id="Group_15839" data-name="Group 15839" transform="translate(-539 -277)">
    <circle id="Ellipse_704" data-name="Ellipse 704" cx="32" cy="32" r="32" transform="translate(539 277)" fill="#e9fce8"/>
    <g id="Group_15838" data-name="Group 15838" transform="translate(547 285)">
      <g id="Group_15838-2" data-name="Group 15838" clip-path="url(#clip-path)">
        <path id="Path_22020" data-name="Path 22020" d="M15.406,12.643a6.992,6.992,0,1,1-6.992-7.05,7.021,7.021,0,0,1,6.992,7.05" transform="translate(1.422 5.593)" fill="#e0f2df"/>
        <path id="Path_22021" data-name="Path 22021" d="M11.62,5.572A6.8,6.8,0,0,0,8.836,5a6.824,6.824,0,0,0-2.788.572A8.1,8.1,0,0,0,1,13.236a8.021,8.021,0,0,0,7.836,8.238,8.023,8.023,0,0,0,7.836-8.238A8.11,8.11,0,0,0,11.62,5.572M8.81,19.26a5.906,5.906,0,0,1-5.692-6.052A5.881,5.881,0,0,1,8.81,7.26,5.9,5.9,0,0,1,14.6,13.208,5.921,5.921,0,0,1,8.81,19.26" transform="translate(1 5)" fill="#4dab4a"/>
        <path id="Path_22022" data-name="Path 22022" d="M4.142,7.376H8.6v.01a7.04,7.04,0,0,1-.444.652H6.962a1.564,1.564,0,0,1,.332.706h1.27c.014,0,.022.01.022.018-.284.43-.428.644-.434.644H7.328a1.851,1.851,0,0,1-1.042,1.41,2.866,2.866,0,0,1-1.242.314v.008q0,.048,2.682,3.208H6.544q-2.61-3.069-2.61-3.082v-.62l.008-.024a3.932,3.932,0,0,0,.542.032q1.464,0,1.82-.956a.764.764,0,0,0,.056-.29H3.712c-.012,0-.02-.006-.02-.018.294-.43.444-.644.45-.644h2.1v-.01a1.238,1.238,0,0,0-.7-.574,2.185,2.185,0,0,0-.666-.122H3.7V8.016c.284-.426.43-.64.44-.64" transform="translate(3.692 7.376)" fill="#4dab4a"/>
        <path id="Path_22023" data-name="Path 22023" d="M24.7,22.314H21.407V11.266h-2.19V22.314H15.929l4.384,4.42Z" transform="translate(15.929 11.266)" fill="#4dab4a"/>
        <path id="Path_22024" data-name="Path 22024" d="M27.383,12.9H24.095V23.949h-2.19V12.9H18.617L23,8.481Z" transform="translate(18.617 8.481)" fill="#4dab4a"/>
        <path id="Path_22025" data-name="Path 22025" d="M21.541,7.808a6.535,6.535,0,0,0-2.97-2.326,6,6,0,0,0-4.714,0A6.868,6.868,0,0,0,9.581,11.97a6.79,6.79,0,0,0,6.632,6.97,6.492,6.492,0,0,0,5.246-2.7,7.288,7.288,0,0,0,.082-8.436m-5.328,6.5a2.316,2.316,0,1,1,2.238-2.334A2.279,2.279,0,0,1,16.213,14.3" transform="translate(9.581 5)" fill="#4dab4a"/>
        <path id="Path_22026" data-name="Path 22026" d="M24.757,23.572V20.258l-.03-.032H11.361a14.922,14.922,0,0,1,8.15-2.578,14.757,14.757,0,0,1,5.246,1.04V13.824a19.735,19.735,0,0,0-5.246-.808c-4.476,0-13.226,2.5-13.226,8.34V24.9H24.941a3.789,3.789,0,0,1-.184-1.328" transform="translate(6.285 13.016)" fill="#4dab4a"/>
      </g>
    </g>
  </g>
</svg>
