<svg id="Component_22_1" data-name="Component 22 – 1" xmlns="http://www.w3.org/2000/svg" xmlns:xlink="http://www.w3.org/1999/xlink" width="24" height="24" viewBox="0 0 24 24">
  <defs>
    <clipPath id="clip-path">
      <rect id="Rectangle_6888" data-name="Rectangle 6888" width="24" height="24" fill="#3c4043"/>
    </clipPath>
  </defs>
  <g id="Group_15580" data-name="Group 15580" clip-path="url(#clip-path)">
    <path id="Path_21987" data-name="Path 21987" d="M18.131,12.188a1.83,1.83,0,1,0,1.75,1.828,1.8,1.8,0,0,0-1.75-1.828m0,2.437a.61.61,0,1,1,.583-.609.594.594,0,0,1-.583.609" fill="#3c4043"/>
    <path id="Path_21988" data-name="Path 21988" d="M21.94,8.323a.994.994,0,0,0-1.29-.637l-1.6.6V5.565a1.016,1.016,0,1,0-2.03,0V9.023L15.172,9.7V5.565a1.011,1.011,0,1,0-2.02,0v4.889l-1.859.679V5.565A1.027,1.027,0,0,0,10.283,4.5a1.041,1.041,0,0,0-1.02,1.065V11.9l-1.839.679V5.565a1.016,1.016,0,1,0-2.03,0v7.751L2.675,14.329a1.069,1.069,0,0,0-.62,1.348,1.032,1.032,0,0,0,.96.71.88.88,0,0,0,.33-.063l2.039-.762v2.883A1.024,1.024,0,0,0,6.394,19.5a1.041,1.041,0,0,0,1.03-1.055V14.82l1.839-.679v4.3a1.032,1.032,0,0,0,1.02,1.055,1.018,1.018,0,0,0,1.01-1.055V13.389l1.859-.689v5.745a1.028,1.028,0,0,0,.31.752v-.418a2.6,2.6,0,0,1,1.71-2.2V11.948l1.689-.617.16-.052v.387a1.862,1.862,0,0,1,1.06-.335,1.813,1.813,0,0,1,.97.272V10.517l2.279-.836a1.071,1.071,0,0,0,.61-1.358" fill="#3c4043"/>
    <path id="Path_21989" data-name="Path 21989" d="M18.131,16.386c-1.184,0-3.5.658-3.5,2.181V19.5h7v-.933c0-1.523-2.315-2.181-3.5-2.181m-2.152,1.9a3.736,3.736,0,0,1,4.3,0Z" fill="#3c4043"/>
  </g>
</svg>
