<svg xmlns="http://www.w3.org/2000/svg" xmlns:xlink="http://www.w3.org/1999/xlink" width="64" height="64" viewBox="0 0 64 64">
  <defs>
    <clipPath id="clip-path">
      <rect id="Rectangle_7018" data-name="Rectangle 7018" width="48" height="48" fill="none"/>
    </clipPath>
  </defs>
  <g id="Group_15852" data-name="Group 15852" transform="translate(-1562 -277)">
    <circle id="Ellipse_703" data-name="Ellipse 703" cx="32" cy="32" r="32" transform="translate(1562 277)" fill="#fff3f3"/>
    <g id="Group_15851" data-name="Group 15851" transform="translate(1570 285)">
      <g id="Group_15850" data-name="Group 15850" clip-path="url(#clip-path)">
        <path id="Path_22038" data-name="Path 22038" d="M32.988,9.242v5.14H31.024a1.035,1.035,0,0,0-.522-.388,1.085,1.085,0,0,0-.36-.064A1.192,1.192,0,0,0,29,15.178v7.4l-2.126.816V15.178a1.192,1.192,0,0,0-1.142-1.248,1.208,1.208,0,0,0-1.162,1.248v9.074l-3.086,1.184a1.049,1.049,0,0,0-.5.386,1.243,1.243,0,0,0-.2,1.184,1.144,1.144,0,0,0,1.082.838h.06v.774l-.46-.322L20.04,29.5a3.48,3.48,0,0,1-2.1.8H4.988A3.646,3.646,0,0,1,1.5,26.532V9.242A3.625,3.625,0,0,1,4.988,5.5H17.956a3.326,3.326,0,0,1,2.1.774l1.444,1.2L23.388,6.1a3.359,3.359,0,0,1,1.9-.6H29.5a3.625,3.625,0,0,1,3.488,3.742" transform="translate(1.5 5.5)" fill="#ffd4d4"/>
        <path id="Path_22039" data-name="Path 22039" d="M32.988,9.242v5.14H30.5V9.5A1.441,1.441,0,0,0,29.16,8.038H25.07a1.252,1.252,0,0,0-.7.236L22.406,9.65a1.8,1.8,0,0,1-2.246-.106L18.718,8.338a1.219,1.219,0,0,0-.8-.3H5.348A1.431,1.431,0,0,0,3.966,9.5V26.274a1.431,1.431,0,0,0,1.382,1.462H17.936a1.274,1.274,0,0,0,.8-.278L20.2,26.21a1.942,1.942,0,0,1,.782-.388,2.454,2.454,0,0,1,.4-.042,2.3,2.3,0,0,1,.542.086v2.752l-.46-.322L20.04,29.5a3.48,3.48,0,0,1-2.1.8H4.988A3.646,3.646,0,0,1,1.5,26.532V9.242A3.625,3.625,0,0,1,4.988,5.5H17.956a3.326,3.326,0,0,1,2.1.774l1.444,1.2L23.388,6.1a3.359,3.359,0,0,1,1.9-.6H29.5a3.625,3.625,0,0,1,3.488,3.742" transform="translate(1.5 5.5)" fill="#ff4646"/>
        <path id="Path_22040" data-name="Path 22040" d="M6.3,8.941a2.284,2.284,0,0,0-2.124,2.408v.086A2.273,2.273,0,0,0,6.3,13.757a2.326,2.326,0,0,0,2.244-2.408A2.326,2.326,0,0,0,6.3,8.941m.06,3.01a.578.578,0,0,1-.6-.56v-.042a.6.6,0,0,1,.542-.6.577.577,0,0,1,.582.58.586.586,0,0,1-.522.624" transform="translate(4.175 8.941)" fill="#ff4646"/>
        <path id="Path_22041" data-name="Path 22041" d="M8.946,11.952a2.248,2.248,0,0,0-2.124,2.322v.086a2.2,2.2,0,0,0,2.244,2.13,2.231,2.231,0,0,0,1.984-2.41,2.177,2.177,0,0,0-2.1-2.128M8.906,14.9a.571.571,0,1,1,.562-.538.563.563,0,0,1-.562.538" transform="translate(6.822 11.952)" fill="#ff4646"/>
        <path id="Path_22042" data-name="Path 22042" d="M5.194,19.616a.733.733,0,0,0,1.066-.192l.034-.056,5.288-9.026a.977.977,0,0,0-.22-1.25.731.731,0,0,0-1.064.19l-.036.058-5.3,9.03a.978.978,0,0,0,.228,1.246" transform="translate(4.836 8.94)" fill="#ff4646"/>
        <path id="Path_22043" data-name="Path 22043" d="M11.857,8.908a1.163,1.163,0,0,1,1.078,1.23V12.1a1.135,1.135,0,0,1-1.02,1.224,1.112,1.112,0,0,1-1.136-1.094c0-.042,0-.084,0-.13v-1.96a1.163,1.163,0,0,1,1.078-1.23" transform="translate(10.777 8.908)" fill="#ff4646"/>
        <path id="Path_22044" data-name="Path 22044" d="M11.857,12.273A1.161,1.161,0,0,1,12.935,13.5v1.962a1.133,1.133,0,0,1-1.02,1.222,1.112,1.112,0,0,1-1.136-1.094c0-.042,0-.084,0-.128V13.5a1.161,1.161,0,0,1,1.078-1.228" transform="translate(10.777 12.273)" fill="#ff4646"/>
        <path id="Path_22045" data-name="Path 22045" d="M33.122,15.779l-2.586.99v9.268a1.208,1.208,0,0,1-1.162,1.248,1.188,1.188,0,0,1-1.162-1.226v-8.41l-2.106.8v7.592a1.192,1.192,0,0,1-1.142,1.248A1.209,1.209,0,0,1,23.8,26.037v-6.71l-2.1.8v5.914a1.21,1.21,0,0,1-1.164,1.248,1.193,1.193,0,0,1-1.142-1.248V21.005l-2.124.8v4.236a1.209,1.209,0,0,1-1.162,1.248,1.194,1.194,0,0,1-1.144-1.248V22.661l-2.324.882a.6.6,0,0,1-.32.086h-.06a1.15,1.15,0,0,1-1.084-.84,1.234,1.234,0,0,1,.2-1.182,1.057,1.057,0,0,1,.5-.388l3.086-1.182V10.961a1.208,1.208,0,0,1,1.164-1.246,1.191,1.191,0,0,1,1.142,1.246v8.216l2.124-.818v-7.4a1.191,1.191,0,0,1,1.142-1.246,1.088,1.088,0,0,1,.362.064,1.027,1.027,0,0,1,.52.388,1.219,1.219,0,0,1,.282.794v6.516l2.1-.794V10.961a1.207,1.207,0,0,1,1.162-1.246,1.19,1.19,0,0,1,1.142,1.246V15.8l2.106-.8V10.961a1.165,1.165,0,1,1,2.324,0v3.184l1.8-.71a1.153,1.153,0,0,1,1.484.774,1.237,1.237,0,0,1-.7,1.57" transform="translate(11.106 9.715)" fill="#ff4646"/>
      </g>
    </g>
  </g>
</svg>
