<svg xmlns="http://www.w3.org/2000/svg" width="18" height="18" viewBox="0 0 18 18">
  <g id="Group_15547" data-name="Group 15547" transform="translate(22020 22382)">
    <circle id="Ellipse_704" data-name="Ellipse 704" cx="9" cy="9" r="9" transform="translate(-22020 -22382)" fill="#fff9e5"/>
    <g id="outline-chat-24px" transform="translate(-22017 -22379)">
      <g id="Bounding_Boxes">
        <path id="Path_2711" data-name="Path 2711" d="M0,0H13V13H0Z" fill="none"/>
      </g>
      <g id="Outline" transform="translate(1.083 1.083)">
        <g id="Group_174" data-name="Group 174">
          <path id="XMLID_4_" d="M3.083,3.083H11.75v6.5H3.717l-.634.634V3.083h0M3.083,2A1.082,1.082,0,0,0,2.005,3.083L2,12.833l2.167-2.167H11.75a1.087,1.087,0,0,0,1.083-1.083v-6.5A1.087,1.087,0,0,0,11.75,2Z" transform="translate(-2 -2)" fill="#ffc400"/>
          <path id="XMLID_3_" d="M6,12h4.333v1.083H6Z" transform="translate(-3.833 -6.583)" fill="#ffc400"/>
          <path id="XMLID_2_" d="M6,9h6.5v1.083H6Z" transform="translate(-3.833 -5.208)" fill="#ffc400"/>
          <path id="XMLID_1_" d="M6,6h6.5V7.083H6Z" transform="translate(-3.833 -3.833)" fill="#ffc400"/>
        </g>
      </g>
    </g>
  </g>
</svg>
