<svg xmlns="http://www.w3.org/2000/svg" xmlns:xlink="http://www.w3.org/1999/xlink" width="64" height="64" viewBox="0 0 64 64">
  <defs>
    <clipPath id="clip-path">
      <rect id="Rectangle_6744" data-name="Rectangle 6744" width="48" height="48" fill="none"/>
    </clipPath>
  </defs>
  <g id="Group_15294" data-name="Group 15294" transform="translate(-1561 -348)">
    <circle id="Ellipse_704" data-name="Ellipse 704" cx="32" cy="32" r="32" transform="translate(1561 348)" fill="#eef4ff"/>
    <g id="Group_15302" data-name="Group 15302" transform="translate(1569 356)">
      <g id="Group_15301" data-name="Group 15301" clip-path="url(#clip-path)">
        <path id="Path_21852" data-name="Path 21852" d="M41.023,18.146l-1.26-1.66a1.017,1.017,0,0,0-1.42-.2,2.749,2.749,0,0,1-3.8-.54,2.6,2.6,0,0,1,.54-3.7.966.966,0,0,0,.22-1.4L34,8.946a4.879,4.879,0,0,0-6.74-.9l-4.12,3.04a2.555,2.555,0,0,1,.38-3.04.969.969,0,0,0-.1-1.4l-1.6-1.42a4.86,4.86,0,0,0-3.44-1.22,4.991,4.991,0,0,0-3.34,1.52l-11.78,12.7A4.667,4.667,0,0,0,2,21.606a4.725,4.725,0,0,0,1.56,3.26l8.62,7.7a4.818,4.818,0,0,0,3.24,1.24h.22a4.948,4.948,0,0,0,2.7-.94l.96,1.28a4.772,4.772,0,0,0,3.16,1.8,3.769,3.769,0,0,0,.68.04,4.76,4.76,0,0,0,2.86-.94l14.1-10.34a4.62,4.62,0,0,0,.92-6.56m-2.18,4.98-14.02,10.36a2.779,2.779,0,0,1-2.06.52,2.6,2.6,0,0,1-1.82-1.02l-7.02-9.2a2.707,2.707,0,0,1-.56-2.02,2.522,2.522,0,0,1,1.06-1.76l14.02-10.36a2.728,2.728,0,0,1,1.64-.54,2.681,2.681,0,0,1,2.18,1.08l.76.94a4.531,4.531,0,0,0-.16,5.82,4.774,4.774,0,0,0,5.76,1.44l.72.96a2.617,2.617,0,0,1-.5,3.78" transform="translate(2.001 4.004)" fill="#7a86a5"/>
        <path id="Path_21853" data-name="Path 21853" d="M14.527,30.824a2.716,2.716,0,0,1-1.978-.7l-8.63-7.752a2.689,2.689,0,0,1-.884-1.856,2.594,2.594,0,0,1,.714-1.938l11.83-12.7a2.8,2.8,0,0,1,1.894-.866H17.6a2.8,2.8,0,0,1,1.852.7l.926.826a4.553,4.553,0,0,0,.126,4.782l-8.294,6.062a4.611,4.611,0,0,0-.926,6.556l4.842,6.268a2.857,2.857,0,0,1-1.6.618" transform="translate(3.031 5.012)" fill="#bbccea"/>
        <path id="Path_21854" data-name="Path 21854" d="M15.722,10.018a1.027,1.027,0,0,0-1.432-.206.981.981,0,0,0-.21,1.4l5.136,6.68a1.09,1.09,0,0,0,.8.412,1.269,1.269,0,0,0,.632-.206.981.981,0,0,0,.21-1.4Z" transform="translate(13.876 9.612)" fill="#7a86a5"/>
        <path id="Path_21855" data-name="Path 21855" d="M13.681,11.523a1.027,1.027,0,0,0-1.432-.206.981.981,0,0,0-.21,1.4l5.178,6.68a1.09,1.09,0,0,0,.8.412,1.269,1.269,0,0,0,.632-.206.981.981,0,0,0,.21-1.4Z" transform="translate(11.835 11.117)" fill="#7a86a5"/>
        <path id="Path_21856" data-name="Path 21856" d="M11.66,13.008a1.027,1.027,0,0,0-1.432-.206.981.981,0,0,0-.21,1.4l5.136,6.68a1.1,1.1,0,0,0,.8.412,1.269,1.269,0,0,0,.632-.206.981.981,0,0,0,.21-1.4Z" transform="translate(9.814 12.602)" fill="#7a86a5"/>
      </g>
    </g>
  </g>
</svg>
