<svg xmlns="http://www.w3.org/2000/svg" xmlns:xlink="http://www.w3.org/1999/xlink" width="64" height="64" viewBox="0 0 64 64">
  <defs>
    <clipPath id="clip-path">
      <rect id="Rectangle_6743" data-name="Rectangle 6743" width="48" height="48" fill="none"/>
    </clipPath>
  </defs>
  <g id="Group_15293" data-name="Group 15293" transform="translate(-1220 -348)">
    <circle id="Ellipse_704" data-name="Ellipse 704" cx="32" cy="32" r="32" transform="translate(1220 348)" fill="#e9fce8"/>
    <g id="Group_15298" data-name="Group 15298" transform="translate(1228 356)">
      <g id="Group_15297" data-name="Group 15297" clip-path="url(#clip-path)">
        <path id="Path_21848" data-name="Path 21848" d="M41.954,22.882,40.1,17.618a.949.949,0,0,0-.378-.44.791.791,0,0,0-.548-.044A3.069,3.069,0,0,1,36.688,17,3.276,3.276,0,0,1,35,15.072,3.4,3.4,0,0,1,36.94,10.73a.723.723,0,0,0,.422-.966L35.508,4.5a.679.679,0,0,0-.926-.44l-23.76,8.95-8.342,3.2a.722.722,0,0,0-.422.964l1.854,5.266a.68.68,0,0,0,.928.438A3.2,3.2,0,0,1,9.01,24.9a3.442,3.442,0,0,1-1.938,4.344.936.936,0,0,0-.422.394.891.891,0,0,0-.042.57l1.854,5.266A.77.77,0,0,0,9.136,36a.511.511,0,0,0,.252-.044L41.49,23.8a.931.931,0,0,0,.422-.4.574.574,0,0,0,.042-.526" transform="translate(2 4)" fill="#4dab4a"/>
        <path id="Path_21849" data-name="Path 21849" d="M17.089,30.288l-.968-2.808a.68.68,0,0,0-.928-.438.723.723,0,0,0-.422.964l.97,2.808L8.747,33.446,7.4,29.542a4.969,4.969,0,0,0,2.15-6.01A4.728,4.728,0,0,0,4.2,20.372l-1.346-3.9,6.992-2.632.97,2.808a.77.77,0,0,0,.672.526.515.515,0,0,0,.254-.044.723.723,0,0,0,.422-.964l-.968-2.808L33.561,4.886l1.348,3.9A4.968,4.968,0,0,0,32.761,14.8,4.923,4.923,0,0,0,35.2,17.608a4.449,4.449,0,0,0,2.906.352l1.35,3.9Z" transform="translate(2.851 4.886)" fill="#e0f2df"/>
        <path id="Path_21850" data-name="Path 21850" d="M10.93,11.134,18.148,8.5l0,.014c-.184.808-.3,1.242-.334,1.312l-1.936.706a2.769,2.769,0,0,1,.964.928l2.05-.748c.032,0,.044,0,.054.024-.21.86-.318,1.278-.332,1.282l-1.332.488a3.458,3.458,0,0,1-.042,1.482,3.28,3.28,0,0,1-.824,1.4A4.834,4.834,0,0,1,14.6,16.64l0,.012q.027.078,6.226,3.568l-1.91.7c-4.03-2.248-6.044-3.388-6.05-3.4l-.364-1,0-.042a6.536,6.536,0,0,0,.9-.272c1.576-.576,2.378-1.448,2.388-2.614a1.3,1.3,0,0,0-.084-.508l-4.294,1.568c-.014,0-.026.01-.036-.016.222-.866.34-1.3.352-1.306l3.41-1.244,0-.012a2.144,2.144,0,0,0-1.478-.508,3.792,3.792,0,0,0-1.148.2l-1.91.7-.014-.038a10.714,10.714,0,0,1,.344-1.288" transform="translate(10.586 8.5)" fill="#4dab4a"/>
        <path id="Path_21851" data-name="Path 21851" d="M8.841,12.549a.679.679,0,0,0-.926-.436.721.721,0,0,0-.422.964l1.474,4.168a.767.767,0,0,0,.674.526.523.523,0,0,0,.254-.044.722.722,0,0,0,.42-.966Z" transform="translate(7.435 12.051)" fill="#4dab4a"/>
      </g>
    </g>
  </g>
</svg>
