<svg xmlns="http://www.w3.org/2000/svg" xmlns:xlink="http://www.w3.org/1999/xlink" width="18" height="18" viewBox="0 0 18 18">
  <defs>
    <clipPath id="clip-path">
      <rect id="Rectangle_6898" data-name="Rectangle 6898" width="14" height="14" fill="#4dab4a"/>
    </clipPath>
  </defs>
  <g id="Group_15543" data-name="Group 15543" transform="translate(21809 22422)">
    <circle id="Ellipse_704" data-name="Ellipse 704" cx="9" cy="9" r="9" transform="translate(-21809 -22422)" fill="#e9fce8"/>
    <g id="Group_15546" data-name="Group 15546" transform="translate(-21807 -22420)">
      <g id="Group_15545" data-name="Group 15545" clip-path="url(#clip-path)">
        <path id="Path_21852" data-name="Path 21852" d="M13.667,13.667c-.053,0-.106-.005-.159-.005H2V10.836h.289a.357.357,0,0,0,.387-.4q0-.66,0-1.318a.353.353,0,0,0-.388-.4H2V5.892h.131c.73,0,1.459,0,2.189,0a.51.51,0,0,0,.245-.068q3.148-1.871,6.293-3.749L10.985,2l1.366,2.444c-.1.057-.184.109-.272.163a.362.362,0,0,0-.134.523c.126.228.256.454.38.683a.14.14,0,0,0,.145.082c.4,0,.8,0,1.2,0V8.723c-.106,0-.212-.007-.318-.005a.347.347,0,0,0-.366.383q0,.675,0,1.349a.353.353,0,0,0,.366.386l.318.006Zm-.684-.718c0-.48,0-.95,0-1.42,0-.026-.038-.061-.067-.075a1.058,1.058,0,0,1-.614-1c0-.451,0-.9,0-1.353a1.037,1.037,0,0,1,.608-.992.124.124,0,0,0,.076-.135c0-.341,0-.682,0-1.023V6.606H2.677c0,.474,0,.94,0,1.406,0,.031.045.074.079.092a1.041,1.041,0,0,1,.6.964c.009.471,0,.941,0,1.412a.978.978,0,0,1-.251.687,4.135,4.135,0,0,1-.426.353v1.429Zm-1.4-7.062c-.074-.134-.137-.25-.2-.364a1.093,1.093,0,0,1,.03-1.236.12.12,0,0,0,.008-.1c-.222-.405-.449-.808-.68-1.223l-4.87,2.9.012.021Z" transform="translate(-0.833 -0.833)" fill="#4dab4a"/>
        <path id="Path_21853" data-name="Path 21853" d="M10.262,11.1c.233.487.46.948.673,1.415a.284.284,0,0,0,.251.187c.478.065.954.139,1.431.211.017,0,.034.006.052.01l.038.048a.427.427,0,0,0-.111.059c-.345.343-.685.691-1.031,1.032a.226.226,0,0,0-.066.228c.09.517.174,1.035.26,1.552a.192.192,0,0,1,0,.035l-.442-.238c-.316-.171-.633-.34-.946-.516a.187.187,0,0,0-.209,0c-.428.238-.859.468-1.289.7-.033.018-.068.035-.116.06.051-.309.1-.6.149-.9.04-.243.08-.487.124-.73a.176.176,0,0,0-.059-.174c-.348-.345-.692-.695-1.038-1.042a1.155,1.155,0,0,0-.1-.079l.014-.032.51-.079c.361-.055.721-.107,1.081-.167a.183.183,0,0,0,.109-.1c.218-.448.432-.9.646-1.348.018-.037.038-.074.069-.134m-.946,2.315c.123.134.23.267.355.38a.248.248,0,0,1,.081.265c-.035.17-.059.342-.09.533.184-.1.35-.185.512-.279a.154.154,0,0,1,.177,0c.162.093.327.179.506.276a1.828,1.828,0,0,0-.051-.293.534.534,0,0,1,.219-.679,1.846,1.846,0,0,0,.2-.2c-.207-.03-.383-.059-.559-.079a.179.179,0,0,1-.161-.121c-.074-.169-.158-.333-.249-.522-.087.181-.168.335-.235.5a.216.216,0,0,1-.2.152c-.169.015-.336.048-.507.075" transform="translate(-3.263 -4.626)" fill="#4dab4a"/>
      </g>
    </g>
  </g>
</svg>
