<svg id="Voucher" xmlns="http://www.w3.org/2000/svg" xmlns:xlink="http://www.w3.org/1999/xlink" width="24" height="24" viewBox="0 0 24 24">
  <defs>
    <clipPath id="clip-path">
      <rect id="Rectangle_6881" data-name="Rectangle 6881" width="24" height="24" fill="#3c4043"/>
    </clipPath>
  </defs>
  <g id="Group_15564" data-name="Group 15564" clip-path="url(#clip-path)">
    <path id="Path_21960" data-name="Path 21960" d="M13.222,11.481a2.017,2.017,0,0,0,1.956-2.074,1.959,1.959,0,1,0-3.912,0h0a2.018,2.018,0,0,0,1.956,2.073m0-2.592a.52.52,0,1,1-.489.519.5.5,0,0,1,.489-.519" fill="#3c4043"/>
    <path id="Path_21961" data-name="Path 21961" d="M16.156,14.592a1.959,1.959,0,1,0,1.956-2.074h0a2.019,2.019,0,0,0-1.955,2.074m2.444,0a.49.49,0,1,1-.49-.518h0a.5.5,0,0,1,.489.518" fill="#3c4043"/>
    <path id="Path_21962" data-name="Path 21962" d="M12.816,16.536a.707.707,0,0,0,1.016-.215l4.89-7.778a.81.81,0,0,0-.2-1.079.709.709,0,0,0-1.017.215l-4.887,7.778a.805.805,0,0,0,.2,1.079" fill="#3c4043"/>
    <path id="Path_21963" data-name="Path 21963" d="M7.6,8.733a.756.756,0,0,0-.733.778v1.244a.734.734,0,1,0,1.466,0V9.511A.756.756,0,0,0,7.6,8.733" fill="#3c4043"/>
    <path id="Path_21964" data-name="Path 21964" d="M7.6,12.467a.756.756,0,0,0-.733.778v1.244a.734.734,0,1,0,1.466,0V13.245a.756.756,0,0,0-.733-.778" fill="#3c4043"/>
    <path id="Path_21965" data-name="Path 21965" d="M22.266,5H1.733A.756.756,0,0,0,1,5.777V9.305a.765.765,0,0,0,.629.77,1.929,1.929,0,0,1,1.556,2.2,1.892,1.892,0,0,1-1.556,1.651A.763.763,0,0,0,1,14.694v3.528A.757.757,0,0,0,1.733,19H22.266A.758.758,0,0,0,23,18.222V5.777A.757.757,0,0,0,22.266,5m-.733,12.444H8.333v-.467a.735.735,0,1,0-1.467,0v.467h-4.4V15.3a3.559,3.559,0,0,0,2.013-4.466A3.409,3.409,0,0,0,2.466,8.7V6.555h4.4v.467a.735.735,0,1,0,1.467,0V6.555h13.2Z" fill="#3c4043"/>
  </g>
</svg>
